<svg width="39" height="39" viewBox="0 0 39 39" fill="none" xmlns="http://www.w3.org/2000/svg">
<path d="M27.1744 22.8478C26.7593 22.6345 24.6912 21.6214 24.3065 21.4843C23.9219 21.3396 23.64 21.271 23.362 21.6976C23.0802 22.1203 22.2804 23.061 22.029 23.3467C21.7853 23.6285 21.5377 23.6628 21.1226 23.4533C18.6546 22.2193 17.0359 21.252 15.4097 18.4603C14.9793 17.7176 15.84 17.7709 16.6437 16.1675C16.7808 15.8856 16.7122 15.6457 16.6056 15.4324C16.4989 15.2191 15.661 13.1549 15.3106 12.3132C14.9717 11.4943 14.6213 11.6086 14.3661 11.5934C14.1224 11.5781 13.8443 11.5781 13.5625 11.5781C13.2807 11.5781 12.8274 11.6848 12.4428 12.0999C12.0581 12.5227 10.9727 13.5396 10.9727 15.6038C10.9727 17.6681 12.4771 19.6676 12.6827 19.9494C12.896 20.2312 15.642 24.4664 19.8581 26.2907C22.5241 27.4409 23.5677 27.5399 24.9007 27.3419C25.7119 27.22 27.3839 26.3288 27.7305 25.3424C28.077 24.3598 28.077 23.5181 27.9742 23.3429C27.8714 23.1563 27.5895 23.0496 27.1744 22.8478Z" fill="#856B8E"/>
<path d="M35.2371 12.8883C34.3763 10.8431 33.1424 9.00732 31.5694 7.43057C29.9965 5.85762 28.1607 4.61982 26.1117 3.76289C24.017 2.88311 21.7927 2.4375 19.5 2.4375H19.4238C17.1158 2.44893 14.8801 2.90596 12.7778 3.80479C10.7478 4.67314 8.92732 5.90713 7.3696 7.48008C5.81189 9.05303 4.58933 10.8812 3.74382 12.9188C2.86784 15.0287 2.42605 17.272 2.43747 19.58C2.4489 22.2231 3.08112 24.8473 4.2656 27.1934V32.9824C4.2656 33.9498 5.05017 34.7344 6.01755 34.7344H11.8104C14.1565 35.9188 16.7806 36.5511 19.4238 36.5625H19.5038C21.7851 36.5625 23.9979 36.1207 26.0812 35.2562C28.1188 34.4068 29.9508 33.1881 31.5199 31.6304C33.0928 30.0727 34.3306 28.2521 35.1952 26.2222C36.094 24.1198 36.551 21.8842 36.5625 19.5762C36.5739 17.2567 36.1245 15.0059 35.2371 12.8883ZM29.4823 29.5699C26.8125 32.2131 23.2705 33.668 19.5 33.668H19.4352C17.1386 33.6565 14.8573 33.0853 12.8426 32.0112L12.5226 31.8398H7.16013V26.4773L6.98874 26.1574C5.91472 24.1427 5.34343 21.8613 5.332 19.5647C5.31677 15.7676 6.76784 12.2027 9.43005 9.51768C12.0884 6.83262 15.6419 5.34727 19.439 5.33203H19.5038C21.4081 5.33203 23.2552 5.70146 24.9958 6.43271C26.6944 7.14492 28.2178 8.16943 29.528 9.47959C30.8343 10.7859 31.8627 12.3132 32.5749 14.0118C33.3137 15.7714 33.6832 17.6376 33.6756 19.5647C33.6527 23.3581 32.1635 26.9115 29.4823 29.5699Z" fill="#856B8E"/>
</svg>
