<svg width="34" height="34" viewBox="0 0 34 34" fill="none" xmlns="http://www.w3.org/2000/svg">
<path d="M16.148 0.00531359C13.4195 0.0382511 7.55342 0.486626 4.27242 3.49669C1.83186 5.91494 0.979732 9.49025 0.879857 13.9113C0.796982 18.3164 0.697107 26.5891 8.67117 28.8416V32.2724C8.67117 32.2724 8.62123 33.6451 9.52861 33.9267C10.6464 34.2805 11.2828 33.2244 12.3453 32.0896L14.3269 29.8488C19.7828 30.3025 23.9616 29.257 24.4429 29.1019C25.55 28.7481 31.7859 27.9512 32.8048 19.6775C33.8503 11.1329 32.2959 5.74919 29.4898 3.31394H29.4728C28.626 2.53406 25.2228 0.0541886 17.6195 0.0265636C17.6195 0.0265636 17.0554 -0.0116864 16.148 0.00425109V0.00531359ZM16.2415 2.40763C17.016 2.40231 17.4867 2.43525 17.4867 2.43525C23.9223 2.45225 26.994 4.38919 27.7186 5.04156C30.0816 7.06669 31.2992 11.9202 30.4078 19.0538C29.561 25.9707 24.5035 26.4084 23.5674 26.707C23.169 26.8345 19.4885 27.7419 14.8517 27.4433C14.8517 27.4433 11.3986 31.6104 10.3191 32.6836C10.148 32.8716 9.94829 32.9269 9.8208 32.8993C9.63805 32.8546 9.5828 32.6283 9.59342 32.3181L9.62636 26.6241C2.86355 24.7541 3.26198 17.6981 3.33423 14.0122C3.41711 10.3264 4.10879 7.31106 6.16792 5.26894C8.93998 2.7625 13.921 2.42463 16.2394 2.40763H16.2415ZM16.7515 6.09238C16.6958 6.09181 16.6406 6.10228 16.589 6.12316C16.5374 6.14404 16.4904 6.17492 16.4508 6.21403C16.4112 6.25315 16.3798 6.29971 16.3582 6.35104C16.3367 6.40238 16.3256 6.45746 16.3254 6.51313C16.3254 6.75113 16.5188 6.93919 16.7515 6.93919C17.805 6.91915 18.852 7.10788 19.8321 7.49448C20.8123 7.88108 21.7063 8.4579 22.4624 9.19169C24.0062 10.6909 24.7585 12.7054 24.7872 15.3393C24.7872 15.572 24.9752 15.7654 25.2132 15.7654V15.7484C25.3254 15.7487 25.4331 15.7046 25.5129 15.6258C25.5928 15.547 25.6382 15.4398 25.6393 15.3276C25.6909 14.0878 25.4898 12.8505 25.0484 11.6909C24.6069 10.5312 23.9342 9.47342 23.0712 8.58181C21.3893 6.93813 19.2579 6.09131 16.7515 6.09131V6.09238ZM11.151 7.06669C10.8503 7.02274 10.5436 7.08311 10.2819 7.23775H10.2596C9.65214 7.59384 9.1049 8.04389 8.63823 8.57119C8.25042 9.01956 8.04004 9.47325 7.98479 9.90994C7.95186 10.1702 7.97417 10.4306 8.05173 10.6792L8.07936 10.6962C8.51604 11.9797 9.08661 13.2143 9.78361 14.3767C10.6814 16.0097 11.7864 17.52 13.071 18.87L13.1092 18.9252L13.1698 18.9699L13.208 19.0145L13.2527 19.0527C14.6076 20.3411 16.1215 21.4512 17.7577 22.3561C19.6277 23.3739 20.7624 23.8552 21.4435 24.055V24.0656C21.6432 24.1262 21.8249 24.1538 22.0077 24.1538C22.5881 24.1113 23.1376 23.8756 23.5685 23.4844C24.0934 23.0177 24.5384 22.4682 24.886 21.8577V21.8471C25.2122 21.233 25.1017 20.6518 24.631 20.2587C23.6883 19.4347 22.669 18.7029 21.5869 18.0731C20.8623 17.68 20.126 17.918 19.8274 18.3164L19.191 19.1186C18.8648 19.5171 18.2719 19.4618 18.2719 19.4618L18.2549 19.4724C13.8339 18.343 12.6545 13.8667 12.6545 13.8667C12.6545 13.8667 12.5992 13.2579 13.0083 12.9476L13.8052 12.3059C14.1866 11.9956 14.4522 11.2604 14.0432 10.5347C13.4178 9.4511 12.6875 8.43152 11.8629 7.49063C11.6826 7.26881 11.4297 7.11789 11.1489 7.06456L11.151 7.06669ZM17.4867 8.32894C16.9225 8.32894 16.9225 9.18106 17.492 9.18106C18.1936 9.19244 18.886 9.34196 19.5298 9.62108C20.1735 9.9002 20.7559 10.3034 21.2437 10.8077C21.6887 11.2986 22.0307 11.8738 22.2493 12.4993C22.468 13.1247 22.5589 13.7877 22.5166 14.4489C22.5185 14.5608 22.5642 14.6675 22.6439 14.7462C22.7235 14.8248 22.8308 14.8691 22.9427 14.8697L22.9597 14.892C23.0724 14.8912 23.1803 14.846 23.26 14.7663C23.3397 14.6866 23.3849 14.5787 23.3857 14.4659C23.424 12.7776 22.8991 11.3613 21.8695 10.2266C20.8347 9.09181 19.3907 8.45538 17.5473 8.32894H17.4867ZM18.1848 10.6197C17.6036 10.6027 17.5813 11.4718 18.1572 11.4888C19.5575 11.5611 20.2375 12.2687 20.3268 13.7243C20.3287 13.8348 20.3739 13.9401 20.4525 14.0178C20.5311 14.0954 20.637 14.1392 20.7475 14.1397H20.7645C20.8214 14.1373 20.8771 14.1236 20.9286 14.0994C20.98 14.0751 21.0261 14.0409 21.0642 13.9987C21.1023 13.9565 21.1316 13.9071 21.1504 13.8534C21.1691 13.7997 21.177 13.7428 21.1736 13.6861C21.0737 11.7884 20.0389 10.7196 18.2018 10.6208H18.1848V10.6197Z" fill="#856B8E"/>
</svg>
