<svg width="14" height="14" viewBox="0 0 14 14" fill="none" xmlns="http://www.w3.org/2000/svg">
<path d="M12.4106 1.11147C10.565 2.70878 9.00359 4.22931 7.57406 6.21316C6.94362 7.08816 6.24253 8.11803 5.78424 9.09037C5.52262 9.60597 5.05099 10.4116 4.89021 11.1862C4.01084 10.3681 3.06628 9.4395 2.09984 8.71216C1.411 8.19394 -0.573067 9.2505 0.234558 9.85819C1.68203 10.9469 2.88581 12.3029 4.29368 13.4402C4.88256 13.9153 6.18762 12.8835 6.49431 12.4506C7.501 11.0243 7.63859 9.28091 8.37228 7.72516C9.49249 5.34581 11.4792 3.39128 13.4407 1.694C14.7403 0.481906 13.3981 0.258344 12.4126 1.11147" fill="#856B8E"/>
</svg>
