<svg width="16" height="18" viewBox="0 0 16 18" fill="none" xmlns="http://www.w3.org/2000/svg">
<path d="M8.00075 15.0009C7.84498 15.0013 7.69403 14.9403 7.57409 14.8284L3.57409 11.0784C3.43794 10.9511 3.35233 10.7682 3.33607 10.5699C3.31982 10.3716 3.37426 10.1741 3.48742 10.0209C3.60058 9.86778 3.76319 9.77146 3.93947 9.75317C4.11575 9.73489 4.29128 9.79613 4.42742 9.92344L8.00075 13.2834L11.5741 10.0434C11.6423 9.98114 11.7207 9.93462 11.805 9.90654C11.8892 9.87847 11.9775 9.8694 12.0649 9.87985C12.1522 9.89031 12.2369 9.92008 12.314 9.96746C12.3911 10.0148 12.4591 10.0789 12.5141 10.1559C12.5751 10.2331 12.6214 10.3235 12.6499 10.4217C12.6784 10.5198 12.6886 10.6236 12.6799 10.7264C12.6711 10.8292 12.6436 10.9288 12.599 11.0191C12.5544 11.1093 12.4937 11.1883 12.4207 11.2509L8.42075 14.8734C8.29736 14.9676 8.14949 15.0125 8.00075 15.0009Z" fill="white"/>
</svg>
