<svg width="1440" height="737" viewBox="0 0 1440 737" fill="none" xmlns="http://www.w3.org/2000/svg" style="transform: scale(-1, 1)">
<path d="M129.5 737L2.5 514L-40 737H129.5Z" fill="#856B8E"/>
<path d="M1393.65 7.39874C1383.57 9.10834 1375.34 13.7709 1367.74 21.8528C1356.1 34.5972 1356.56 31.0226 1356.56 119.456V198.565H1339.49H1322.42L1322.11 158.467C1321.8 136.552 1321.18 118.679 1320.56 118.835C1319.79 119.146 1291.39 119.301 1257.25 119.301H1195.17V174.475C1195.17 227.473 1195.02 229.649 1192.22 229.649C1190.67 229.649 1187.88 230.892 1186.02 232.291C1183.07 234.778 1182.76 236.954 1182.45 253.739L1181.98 272.389L1171.27 273.322C1161.65 274.099 1160.1 274.721 1156.06 279.228C1151.72 284.046 1151.72 284.201 1151.72 305.027V326.009L1145.98 329.739C1133.25 337.821 1130.15 344.97 1129.99 367.506C1129.99 383.359 1129.99 383.514 1125.65 385.69C1119.29 388.954 1108.42 401.388 1105.01 409.314C1102.37 415.22 1101.28 416.152 1097.09 416.152C1083.28 416.152 1067.3 427.343 1062.33 440.553C1059.07 449.101 1058.76 461.069 1061.71 469.617C1064.04 476.922 1075.52 489.666 1081.89 492.308C1087.63 494.639 1087.63 495.572 1082.2 499.613C1079.87 501.322 1076.14 505.985 1074.13 509.871C1070.87 515.932 1069.63 517.02 1064.19 517.797C1046.66 520.75 1034.71 539.245 1039.99 555.253C1042.31 562.402 1050.85 572.038 1057.06 574.681C1061.25 576.39 1061.56 577.012 1060.78 582.296C1057.68 602.034 1076.61 619.597 1096.16 615.245C1099.73 614.313 1103.15 614.002 1103.46 614.468C1103.92 614.779 1102.68 634.517 1100.82 658.296C1095.08 729.323 1095.08 728.546 1098.8 734.296C1104.7 743.777 1115.72 742.534 1120.06 732.121C1122.7 726.215 1121.77 708.031 1115.25 636.848C1114.16 624.415 1113.39 614.157 1113.54 614.002C1113.85 613.691 1117.89 614.313 1122.7 615.245L1131.55 617.11V680.055V743L1218.14 742.067C1265.63 741.446 1284.46 740.98 1284.46 740.98L1333.44 675.632L1412.28 543.286L1460.21 391.13C1460.21 391.13 1478.9 272.446 1477.97 268.871C1477.97 268.871 1472.45 90.2694 1463.76 85.9177C1457.25 82.4984 1463.76 74.3846 1463.76 74.3846L1460.21 53.9452L1449.37 37.0839C1449.37 27.4479 1453.11 29.0778 1453.11 29.0778C1450.94 21.3068 1456.81 26.9816 1449.37 21.8528L1441.92 6C1419.26 6.1554 1397.53 6.77704 1393.65 7.39874ZM1410.57 59.9306C1411.66 61.4848 1412.43 67.0799 1412.43 74.3846C1412.43 87.9061 1410.57 91.3254 1403.12 91.3254C1396.45 91.3254 1393.81 86.352 1393.81 73.763C1393.81 64.5933 1394.27 62.7281 1397.69 59.3089C1401.88 55.1125 1406.84 55.268 1410.57 59.9306ZM1449.37 59.9306C1452.31 63.8161 1451.85 84.9532 1448.59 88.5278C1445.49 91.9471 1439.12 92.1025 1435.4 88.6832C1433.23 86.6628 1432.61 83.8652 1432.61 74.3846C1432.61 67.857 1433.23 61.7957 1433.85 60.8632C1437.42 55.5789 1445.49 54.9572 1449.37 59.9306ZM1409.64 111.064C1411.97 113.084 1412.43 115.882 1412.43 125.984C1412.43 139.661 1410.26 144.168 1403.74 144.168C1397.69 144.168 1393.81 137.33 1393.81 126.295C1393.81 118.835 1394.59 115.726 1397.07 112.462C1400.64 107.8 1405.45 107.334 1409.64 111.064ZM1445.33 125.518C1445.18 134.532 1445.02 142.303 1445.02 142.925C1445.02 145.411 1438.66 144.013 1435.71 141.06C1431.05 136.397 1431.21 116.037 1435.86 111.375C1437.57 109.665 1440.52 108.422 1442.38 108.732C1445.49 109.199 1445.64 109.976 1445.33 125.518ZM1409.95 163.751C1413.05 166.859 1413.52 191.105 1410.57 193.591C1406.22 196.855 1402.03 197.011 1398.31 194.058C1394.9 191.416 1394.59 189.861 1394.59 178.671C1394.59 170.589 1395.36 165.461 1396.76 163.906C1399.4 160.643 1406.84 160.487 1409.95 163.751ZM1445.18 174.475C1445.33 181.78 1445.49 189.24 1445.49 191.105C1445.64 193.902 1444.71 194.835 1441.61 195.146C1435.4 195.923 1432.61 190.639 1432.61 178.36C1432.61 166.704 1435.4 161.264 1441.3 161.264C1444.87 161.264 1445.02 161.575 1445.18 174.475ZM1306.59 243.015C1309.54 245.035 1310.01 246.745 1310.01 256.226C1310.01 268.659 1308.3 273.166 1303.49 273.166C1296.97 273.166 1294.49 268.97 1294.49 257.314C1294.49 248.765 1295.11 246.123 1297.59 243.637C1301.32 239.907 1302.09 239.907 1306.59 243.015ZM1339.49 243.637C1341.98 246.123 1342.6 248.765 1342.6 256.536C1342.6 267.105 1339.8 273.166 1334.84 273.166C1329.1 273.166 1327.08 268.97 1327.08 256.847C1327.08 246.745 1327.55 245.035 1330.49 243.015C1334.99 239.907 1335.77 239.907 1339.49 243.637ZM1308.15 290.573C1309.23 291.661 1310.01 297.101 1310.01 304.25C1310.01 311.4 1309.23 316.839 1308.15 317.927C1305.2 320.88 1297.9 320.259 1296.04 316.839C1293.4 311.866 1294.02 294.77 1297.13 291.506C1299.92 288.242 1305.35 287.776 1308.15 290.573ZM1341.05 291.661C1341.82 293.371 1342.6 298.966 1342.6 304.25C1342.6 316.218 1340.74 319.792 1334.84 319.792C1328.94 319.792 1327.08 316.218 1327.08 304.25C1327.08 292.283 1328.94 288.708 1334.84 288.708C1337.79 288.708 1339.96 289.796 1341.05 291.661ZM1307.53 337.821C1309.39 339.531 1310.01 343.261 1310.01 351.653C1310.01 367.04 1305.04 372.324 1297.59 364.864C1295.11 362.377 1294.49 359.735 1294.49 351.653C1294.49 343.572 1295.11 340.929 1297.59 338.443C1301.32 334.713 1304.27 334.557 1307.53 337.821ZM1339.8 337.976C1343.68 341.396 1343.84 360.978 1339.96 365.175C1336.86 368.594 1333.6 368.749 1329.87 365.33C1325.99 361.911 1325.84 342.328 1329.72 338.132C1332.82 334.713 1336.08 334.557 1339.8 337.976ZM1158.7 365.641V379.629L1152.19 380.095L1145.67 380.561L1145.2 366.418C1144.89 358.492 1145.05 351.809 1145.51 351.498C1145.82 351.032 1148.93 350.876 1152.5 351.187L1158.7 351.653V365.641ZM1185.86 365.797V380.561L1179.34 380.095L1172.67 379.629L1172.2 367.351C1171.89 360.512 1172.05 354.14 1172.51 352.897C1172.98 351.653 1175.77 350.876 1179.65 350.876H1185.86V365.797ZM1213.79 365.797V380.561L1207.28 380.095L1200.6 379.629L1200.14 367.351C1199.83 360.512 1199.98 354.14 1200.45 352.897C1200.91 351.653 1203.71 350.876 1207.59 350.876H1213.79V365.797ZM1241.42 366.107L1241.88 380.561L1235.21 380.095L1228.54 379.629L1228.07 367.351C1227.45 351.498 1227.92 350.565 1235.05 351.187L1240.95 351.653L1241.42 366.107ZM1342.29 397.968C1342.75 410.402 1340.89 414.598 1334.84 414.598C1329.25 414.598 1327.08 410.402 1327.08 399.212C1327.08 385.535 1331.58 379.784 1338.72 384.291C1341.36 385.846 1341.82 388.177 1342.29 397.968ZM1308.15 385.379C1310.94 388.177 1310.63 410.557 1307.84 413.044C1304.42 415.842 1298.68 414.287 1296.51 409.936C1294.18 405.273 1293.87 392.995 1296.04 387.555C1297.13 384.447 1298.68 383.514 1301.94 383.514C1304.27 383.514 1307.06 384.291 1308.15 385.379ZM1158.7 406.05V420.038L1152.19 420.504L1145.51 420.97V406.05V391.13L1152.19 391.596L1158.7 392.062V406.05ZM1186.64 406.05V420.038L1180.12 420.504L1173.45 420.97V406.05V391.13L1180.12 391.596L1186.64 392.062V406.05ZM1213.79 406.206V420.97L1207.28 420.504L1200.6 420.038L1200.14 407.76C1199.83 400.921 1199.98 394.549 1200.45 393.306C1200.91 392.062 1203.71 391.285 1207.59 391.285H1213.79V406.206ZM1241.73 406.206V420.97L1235.21 420.504L1228.54 420.038L1228.07 407.76C1227.76 400.921 1227.92 394.549 1228.38 393.306C1228.85 392.062 1231.64 391.285 1235.52 391.285H1241.73V406.206ZM1308.15 432.005C1309.23 433.093 1310.01 438.688 1310.01 445.993C1310.01 457.183 1309.7 458.271 1305.97 460.602C1302.25 463.089 1301.94 463.089 1299.15 460.292C1296.82 457.96 1296.04 454.852 1295.89 445.993C1295.73 438.999 1296.35 433.87 1297.59 432.472C1299.92 429.674 1305.51 429.363 1308.15 432.005ZM1340.12 432.627C1341.98 434.337 1342.6 438.067 1342.6 446.459C1342.6 456.406 1342.13 458.271 1339.34 460.292C1337.48 461.535 1334.84 462.157 1333.44 461.69C1328.63 459.981 1327.08 456.095 1327.08 445.527C1327.08 434.337 1329.25 430.14 1334.84 430.14C1336.39 430.14 1338.87 431.228 1340.12 432.627ZM1159.17 470.86L1158.7 485.314L1152.19 485.78L1145.51 486.247V471.482V456.562H1152.5H1159.63L1159.17 470.86ZM1186.64 471.326V485.314L1180.12 485.78L1173.45 486.247V471.326V456.406L1180.12 456.872L1186.64 457.339V471.326ZM1215.04 468.218C1215.66 484.226 1215.04 486.091 1207.59 486.091H1201.38V471.171V456.406L1208.05 456.872L1214.57 457.339L1215.04 468.218ZM1241.73 471.482V486.247L1235.21 485.78L1228.54 485.314L1228.07 473.036C1227.76 466.198 1227.92 459.825 1228.38 458.582C1228.85 457.339 1231.64 456.562 1235.52 456.562H1241.73V471.482ZM1307.06 478.32C1309.54 479.719 1310.01 481.74 1310.01 493.085C1310.01 504.897 1309.7 506.296 1306.75 508.005C1304.27 509.249 1302.4 509.249 1299.77 508.005C1296.2 506.451 1296.04 505.519 1296.04 493.241C1296.04 482.361 1296.51 479.719 1298.84 478.476C1302.25 476.455 1303.34 476.455 1307.06 478.32ZM1339.8 479.408C1343.68 482.827 1343.84 502.41 1339.96 506.607C1333.44 513.911 1327.08 507.228 1327.08 492.774C1327.08 485.003 1327.7 482.361 1330.18 479.875C1333.91 476.144 1336.08 475.989 1339.8 479.408ZM1159.17 511.269L1158.7 525.723L1152.19 526.19L1145.51 526.656V511.891V496.971H1152.5H1159.63L1159.17 511.269ZM1186.64 511.736V525.723L1180.12 526.19L1173.45 526.656V511.736V496.815L1180.12 497.282L1186.64 497.748V511.736ZM1214.57 511.736V525.723L1208.05 526.19L1201.38 526.656V511.736V496.815L1208.05 497.282L1214.57 497.748V511.736ZM1241.73 511.736V526.5H1235.68C1231.64 526.5 1229.31 525.723 1228.69 524.014C1227.45 520.75 1227.45 499.302 1228.85 498.059C1229.31 497.437 1232.57 496.971 1235.83 496.971H1241.73V511.736ZM1308.15 526.967C1310.94 530.23 1311.87 547.016 1309.7 551.368C1307.37 555.719 1301.63 557.273 1298.21 554.476C1295.42 551.989 1295.11 529.609 1297.9 526.811C1300.39 524.325 1306.13 524.48 1308.15 526.967ZM1340.74 526.811C1341.82 527.899 1342.6 533.339 1342.6 540.488C1342.6 552.922 1341.2 556.03 1335.77 556.03C1329.56 556.03 1328.01 553.543 1327.39 543.286C1326.61 530.386 1328.63 524.946 1334.53 524.946C1336.86 524.946 1339.65 525.723 1340.74 526.811ZM1159.17 575.768L1159.63 590.222H1152.5H1145.51V576.546C1145.51 568.93 1145.98 562.247 1146.6 561.625C1147.22 561.004 1150.17 560.693 1153.27 561.004L1158.7 561.47L1159.17 575.768ZM1187.1 575.768L1187.57 590.222H1180.43H1173.45V575.302V560.537L1180.12 561.004L1186.64 561.47L1187.1 575.768ZM1214.57 575.458V589.445L1208.05 589.912L1201.38 590.378V575.458V560.537L1208.05 561.004L1214.57 561.47V575.458ZM1242.04 562.558C1242.5 563.646 1242.66 570.173 1242.66 577.012L1242.5 589.445L1235.99 589.912L1229.31 590.378V575.613V560.693H1235.36C1238.78 560.693 1241.73 561.47 1242.04 562.558ZM1308.61 574.836C1311.41 577.633 1311.87 579.499 1311.25 588.979C1310.79 597.372 1310.01 600.325 1307.68 602.034C1303.96 604.832 1301.47 604.832 1298.53 601.724C1295.42 598.771 1294.96 576.39 1297.9 573.437C1300.7 570.64 1305.04 571.261 1308.61 574.836ZM1340.12 574.059C1341.98 575.768 1342.6 579.499 1342.6 587.891C1342.6 598.46 1342.29 599.703 1338.87 601.879C1330.96 607.163 1325.68 598.615 1327.55 583.073C1328.63 572.349 1334.37 568.308 1340.12 574.059ZM1186.33 602.501C1186.95 602.656 1187.26 609.184 1187.1 616.955L1186.64 631.409H1180.43H1174.22L1173.76 618.353C1173.45 611.204 1173.6 604.366 1174.07 603.278C1174.53 602.19 1176.86 601.724 1179.96 601.879C1182.76 602.19 1185.71 602.501 1186.33 602.501ZM1212.86 602.034C1214.88 602.811 1215.35 605.609 1215.35 616.644V630.321L1209.91 631.253C1206.81 631.875 1203.71 631.875 1202.93 631.409C1201.22 630.321 1200.76 603.744 1202.47 602.19C1203.71 600.791 1209.6 600.791 1212.86 602.034ZM1240.8 602.034C1242.81 602.811 1243.28 605.609 1243.28 616.022C1243.28 627.989 1242.97 629.233 1240.02 630.476C1238.16 631.098 1235.21 631.564 1233.35 631.409C1230.24 631.098 1230.09 630.165 1229.62 616.178L1229.16 601.102H1233.81C1236.3 601.102 1239.4 601.568 1240.8 602.034ZM1159.48 616.644C1159.48 630.01 1159.32 630.632 1155.75 631.564C1147.06 633.74 1146.29 632.497 1145.82 616.955L1145.36 602.656H1152.5H1159.48V616.644ZM1310.16 623.949C1312.18 629.388 1311.87 641.666 1309.54 646.174C1307.37 650.525 1301.63 652.08 1298.21 649.282C1295.89 647.261 1294.96 625.192 1297.28 621.928C1300.39 617.266 1307.99 618.509 1310.16 623.949ZM1339.34 620.84C1342.44 623.327 1342.75 624.881 1342.29 636.071C1341.82 648.039 1341.67 648.505 1337.48 649.904C1330.34 652.39 1327.86 648.349 1327.86 634.362C1327.86 624.57 1328.32 622.239 1330.8 620.374C1334.68 617.576 1335.3 617.576 1339.34 620.84ZM1309.39 670.264C1311.25 673.217 1311.72 676.636 1311.25 684.407C1310.63 694.975 1309.08 697.462 1303.03 697.462C1297.44 697.462 1296.04 694.354 1296.04 681.92C1296.04 674.771 1296.82 669.331 1297.9 668.243C1301.01 665.135 1306.59 666.067 1309.39 670.264Z" fill="#856B8E"/>
<path d="M7.22424 80.291C-0.845421 83.8657 -8.75992 91.792 -12.3292 99.8738C-15.1225 105.78 -15.2778 114.483 -15.2778 268.193V430.296L-21.4852 436.668C-24.8993 440.243 -31.0225 439.391 -31.0225 439.391L-27.4719 454.852L-25.6966 460.706V466.035L-27.4719 457.153C-27.9375 453.268 -29.2472 440.434 -29.2472 434.062L-43.4494 405.273L-47 373.412L-36.3483 414.523L-43.4494 411.49L-38.1236 423.405L24.4499 586.819L88.6968 688.065L109.225 714.709L128.269 739.581L165.514 738.648V683.319V628.145L170.169 618.82C177.929 603.589 193.602 595.196 211.449 596.906C222.312 597.838 230.847 602.19 238.296 610.427C248.073 621.307 248.073 621.307 249.314 683.008L250.556 739.426H494.663C726.2 739.426 738.925 739.27 738.925 736.628C738.925 732.276 734.891 718.755 731.942 713.16C729.304 708.031 729.304 699.016 730.235 535.981C731.477 351.654 731.477 351.809 739.546 334.868C755.22 301.453 798.672 279.228 831.571 287.776C850.659 292.594 864.626 302.075 873.782 316.529C876.42 320.57 878.593 324.455 878.593 324.921C878.593 325.388 876.265 326.942 873.316 328.341C863.074 333.314 853.763 345.281 853.763 353.985C853.763 356.782 854.694 357.093 863.074 357.093C871.454 357.093 872.54 357.56 873.782 360.512C875.489 364.864 879.679 368.75 884.334 370.148C889.611 371.858 897.991 367.506 900.163 361.911C902.181 357.249 902.491 357.093 912.268 357.093H922.355L921.269 352.741C918.165 340.463 909.63 330.672 899.077 327.564C894.111 326.009 892.559 324.3 888.059 315.752C874.713 289.952 850.194 274.099 820.398 272.079C803.948 270.991 788.43 274.41 771.514 282.647C754.754 290.885 734.735 310.312 726.976 326.009C715.803 348.39 716.423 337.51 717.044 522.304C717.355 613.536 717.044 688.137 716.424 688.137C715.803 688.137 711.768 685.029 707.578 681.143C698.887 673.372 681.972 664.669 669.868 661.716C665.678 660.783 655.28 660.162 647.055 660.317C638.675 660.628 631.537 660.472 631.226 660.006C629.83 658.763 622.381 584.938 623.157 581.519C624.709 575.302 638.986 561.47 649.228 556.03C665.523 547.482 669.092 544.218 669.092 538.002C669.092 533.184 668.471 532.251 663.35 530.231C656.832 527.433 648.297 528.987 638.831 534.427C632.933 538.002 622.536 550.435 622.536 553.854C622.536 557.895 619.743 556.03 615.708 549.192C611.052 541.266 602.362 533.184 595.223 530.231C582.188 524.791 568.221 529.609 570.549 538.623C571.945 544.529 573.187 545.617 585.602 552.145C600.189 559.605 609.19 566.91 614.001 575.147L617.725 581.83L613.38 624.881C610.897 648.505 608.104 668.865 607.173 670.108C606.242 671.352 603.293 673.061 600.965 674.149C597.241 675.703 595.534 675.393 590.413 672.906C573.187 664.047 551.616 661.716 530.976 666.689C527.873 667.311 527.562 663.736 520.113 570.795C516.544 528.055 513.44 489.822 512.82 485.781L512.044 478.476L558.289 478.01C598.948 477.543 605.31 477.233 609.656 474.901C627.657 464.954 627.968 440.398 610.276 430.451L604.069 426.877L607.483 419.572C612.449 408.848 612.294 388.488 607.173 378.852C598.482 362.378 588.706 355.073 571.945 351.964C561.858 350.099 561.393 349.789 559.531 344.193C556.737 336.112 549.133 325.543 542.305 320.103C510.647 295.236 466.264 305.028 448.573 340.774C443.762 350.566 443.762 350.566 436.003 351.654C431.657 352.275 424.519 354.762 419.863 357.093L411.638 361.445L411.173 289.797C410.707 218.148 410.707 217.993 407.138 210.688C405.121 206.492 400.62 200.741 397.051 197.788C385.878 188.152 380.601 187.375 325.821 187.997C280.351 188.463 276.782 188.618 270.264 191.727C261.574 195.768 253.659 203.539 249.935 211.776C247.297 217.371 246.986 222.811 246.986 261.821V305.649L198.568 306.116C152.013 306.582 149.685 306.737 143.633 310.001C140.219 311.866 135.097 315.907 132.459 318.86C129.821 321.968 127.183 324.455 126.873 324.455C126.407 324.455 126.097 275.498 125.941 215.506C125.941 97.5425 126.252 101.894 117.406 90.3932C115.389 87.5957 109.957 83.5548 105.457 81.3789L97.3872 77.338H55.487C18.0872 77.338 12.8109 77.6489 7.22424 80.291ZM30.9677 137.175C31.4333 150.23 30.0366 153.494 24.1395 153.494C18.8632 153.494 15.7595 147.898 15.7595 138.418C15.7595 124.43 20.1047 118.835 27.3984 123.187C30.0366 124.741 30.5021 127.072 30.9677 137.175ZM60.7634 123.964C63.2463 126.451 63.8671 129.093 63.8671 137.485C63.8671 151.784 58.4356 157.535 51.1418 150.852C48.9692 148.831 48.3485 146.033 48.3485 137.019C48.3485 127.072 48.8141 125.363 51.7626 123.342C56.263 120.234 57.0389 120.234 60.7634 123.964ZM92.5765 123.031C94.7491 124.586 95.6802 127.539 95.9906 134.999C96.6113 146.189 94.2835 152.406 89.1624 153.183C83.2653 154.115 80.9375 149.608 80.9375 137.175C80.9375 127.072 81.4031 125.363 84.3516 123.342C88.5416 120.389 88.852 120.389 92.5765 123.031ZM29.571 171.211C30.8125 172.61 31.2781 177.894 30.9677 185.355C30.5021 195.768 30.0366 197.788 27.0881 199.653C23.9843 201.829 23.3636 201.674 19.6391 197.944C16.3802 194.68 15.7595 192.659 15.7595 185.044C15.7595 179.293 16.6906 174.631 18.2424 172.455C20.8806 168.569 26.9329 167.948 29.571 171.211ZM62.3152 171.989C63.0911 173.698 63.8671 179.604 63.8671 185.199C63.8671 193.436 63.2463 196.079 60.7634 198.565C59.0563 200.275 57.0389 201.674 56.1078 201.674C55.3318 201.674 53.1593 200.275 51.4522 198.565C47.4174 194.524 46.9519 175.408 50.8315 171.522C54.0904 168.103 60.2978 168.414 62.3152 171.989ZM93.3524 170.59C94.7491 171.522 95.8354 175.563 96.1457 182.868C96.7665 192.97 96.4561 194.058 92.7316 197.788C88.852 201.674 88.2313 201.829 85.1275 199.653C82.179 197.788 81.7135 195.768 81.2479 185.355C80.9375 177.894 81.4031 172.61 82.6446 171.211C84.662 168.725 89.9383 168.414 93.3524 170.59ZM28.3295 217.216C30.8125 218.614 31.2781 220.635 31.2781 231.203C31.2781 243.482 29.4158 248.3 24.4499 248.3C19.1736 248.3 17.4665 244.414 17.001 232.136C16.6906 221.723 17.1561 219.702 19.6391 217.837C23.2084 215.195 24.2947 215.195 28.3295 217.216ZM61.3841 218.148C64.9534 221.567 64.7982 241.461 61.2289 245.502C57.8148 249.232 53.6248 249.077 50.8315 244.88C47.4174 239.907 47.4174 222.344 50.9867 218.459C54.0904 215.04 58.1252 214.884 61.3841 218.148ZM93.9731 219.081C96.7665 222.966 97.232 236.488 95.0594 242.549C93.042 247.833 87.7657 249.388 83.886 245.813C80.0064 242.238 79.5409 221.878 83.4205 218.148C86.8346 214.729 91.1798 215.04 93.9731 219.081ZM287.335 234.156C289.507 238.353 289.352 258.091 287.024 260.422C284.076 263.375 276.782 262.754 274.92 259.334C272.437 254.361 272.902 236.488 275.851 233.69C279.11 230.271 285.317 230.582 287.335 234.156ZM318.372 232.758C320.079 233.846 320.7 237.265 320.7 246.745C320.7 256.226 320.079 259.645 318.372 260.733C315.113 262.754 309.992 262.598 307.819 260.422C305.336 257.936 305.336 235.555 307.819 233.068C309.992 230.893 315.113 230.737 318.372 232.758ZM350.65 233.068C353.133 235.555 353.133 257.936 350.65 260.422C349.564 261.51 347.391 262.287 345.529 262.287C339.943 262.287 338.546 259.179 338.546 246.745C338.546 234.312 339.943 231.203 345.529 231.203C347.391 231.203 349.564 231.981 350.65 233.068ZM383.239 233.068C385.722 235.555 385.722 257.936 383.239 260.422C380.601 263.064 374.859 262.754 372.066 259.801C369.117 257.003 368.652 239.13 371.135 234.156C372.997 230.737 380.291 230.115 383.239 233.068ZM30.9677 278.606C31.4333 291.506 30.0366 294.925 24.2947 294.925C18.708 294.925 17.001 291.351 17.001 279.073C17.001 269.281 17.4665 267.416 20.5702 265.085C23.5188 262.598 24.2947 262.443 27.2432 264.308C30.0366 266.173 30.5021 268.349 30.9677 278.606ZM63.5567 277.674C64.0223 289.952 62.3152 294.925 57.3493 294.925C50.8315 294.925 48.3485 290.729 48.3485 279.384C48.3485 265.862 52.8489 260.111 59.9874 264.619C62.4704 266.173 63.2463 268.504 63.5567 277.674ZM95.0594 268.038C97.232 274.099 96.7665 287.621 93.9731 291.506C91.0246 295.702 84.662 296.013 82.4894 291.972C81.7135 290.263 80.9375 284.046 80.9375 277.985C80.9375 268.815 81.4031 266.794 84.1964 264.929C88.3864 261.976 93.1972 263.375 95.0594 268.038ZM286.404 280.316C289.973 283.735 289.818 303.629 286.248 307.67C282.989 311.244 280.351 311.244 276.472 307.359C272.282 303.163 271.971 284.979 276.006 280.627C279.11 277.208 283.145 277.052 286.404 280.316ZM318.993 281.249C322.717 286.688 322.407 303.318 318.372 307.359C314.647 311.089 312.475 311.244 308.75 307.825C305.026 304.406 304.715 284.046 308.44 280.316C311.854 276.897 316.199 277.208 318.993 281.249ZM350.65 279.694C351.737 280.782 352.513 286.533 352.513 294.459C352.513 305.494 352.047 307.514 349.564 308.913C341.65 313.109 338.546 308.758 338.546 293.527C338.546 280.938 339.943 277.829 345.529 277.829C347.391 277.829 349.564 278.606 350.65 279.694ZM382.619 280.316C384.481 282.026 385.102 285.756 385.102 294.148C385.102 304.251 384.636 305.96 381.688 307.981C377.187 311.089 376.411 311.089 372.687 307.359C368.497 303.163 368.186 284.979 372.221 280.627C375.325 277.208 379.36 277.052 382.619 280.316ZM29.4158 312.332C32.3644 315.285 31.8988 337.666 28.7951 340.619C25.6914 343.727 23.674 343.727 20.1047 340.463C17.9321 338.443 17.3113 335.645 17.3113 326.009C17.3113 313.576 18.708 310.467 24.2947 310.467C26.1569 310.467 28.3295 311.244 29.4158 312.332ZM62.3152 313.42C63.0911 315.13 63.8671 321.347 63.8671 327.408C63.8671 336.889 63.4015 338.598 60.453 340.619C55.9526 343.727 55.1767 343.727 51.4522 339.997C47.2622 335.801 46.9518 317.617 50.9867 313.265C54.2456 309.535 60.2978 309.69 62.3152 313.42ZM93.9731 312.954C97.0769 315.907 97.3872 335.024 94.5939 338.754C91.4902 342.484 87.7657 343.105 84.1964 340.619C81.4031 338.598 80.9375 336.733 80.9375 326.165C80.9375 319.015 81.7135 313.42 82.7998 312.332C85.4379 309.69 91.1798 310.001 93.9731 312.954ZM318.372 327.564C320.855 330.05 321.475 332.692 321.475 341.085C321.475 352.12 318.992 357.093 313.561 357.093C307.974 357.093 305.957 352.741 305.957 340.774C305.957 330.672 306.422 328.962 309.371 326.942C313.871 323.833 314.647 323.833 318.372 327.564ZM350.03 326.476C352.357 328.185 352.978 330.827 352.978 340.463C352.978 353.363 351.271 357.093 345.684 357.093C339.943 357.093 338.546 354.14 338.546 341.707C338.546 326.631 342.736 321.036 350.03 326.476ZM382.619 327.408C384.636 329.739 385.102 332.692 384.791 342.484C384.326 354.296 384.171 354.762 379.825 356.316C376.101 357.56 375.015 357.249 372.532 354.14C368.186 348.856 368.342 331.915 372.687 327.564C376.566 323.678 379.205 323.678 382.619 327.408ZM167.842 345.748C170.635 349.322 170.945 351.654 170.635 363.155L170.169 376.521H160.858H151.547L151.082 362.222C150.771 349.478 151.082 347.457 153.875 344.66C158.22 340.308 163.807 340.774 167.842 345.748ZM197.637 344.193C199.965 346.214 200.431 349.167 200.431 362.067V377.298H191.119C182.584 377.298 181.808 376.987 180.877 373.412C179.015 365.797 180.877 348.234 183.981 344.815C187.55 340.93 193.758 340.619 197.637 344.193ZM228.364 344.66C231.157 347.457 231.468 349.478 231.157 362.222L230.692 376.521H221.381H212.07L211.604 362.222C211.294 349.478 211.604 347.457 214.397 344.66C216.104 342.95 219.208 341.551 221.381 341.551C223.553 341.551 226.657 342.95 228.364 344.66ZM258.78 344.815C261.108 347.302 261.884 351.032 262.194 360.823C262.97 376.054 261.729 377.764 250.556 376.987L243.107 376.521L242.641 361.911C242.331 349.944 242.641 346.836 244.814 344.504C248.383 340.619 255.056 340.774 258.78 344.815ZM28.3295 358.647C30.8125 360.046 31.2781 362.067 31.2781 373.257C31.2781 388.177 29.4158 391.286 22.2773 388.799C18.2424 387.4 18.0873 386.778 17.6217 374.656C17.3113 364.709 17.7769 361.6 19.6391 359.58C22.5876 356.627 24.1395 356.472 28.3295 358.647ZM61.3841 359.58C63.2463 361.29 63.8671 365.02 63.8671 373.412C63.8671 385.535 61.8496 389.731 56.1078 389.731C51.1418 389.731 48.3485 383.67 48.3485 373.101C48.3485 365.33 48.9693 362.688 51.4522 360.202C55.1767 356.472 58.1252 356.316 61.3841 359.58ZM93.9731 360.512C97.3872 365.486 97.3872 383.048 93.818 386.934C90.7142 390.353 87.4553 390.508 83.7309 387.089C79.8512 383.67 79.696 364.087 83.5757 359.891C86.9898 356.161 91.1798 356.316 93.9731 360.512ZM318.993 375.122C321.941 377.919 322.407 395.793 319.924 400.766C318.061 404.185 310.768 404.807 307.819 401.854C305.491 399.523 305.336 379.785 307.509 375.588C309.526 372.014 315.734 371.703 318.993 375.122ZM352.047 377.298C354.84 382.737 354.53 396.104 351.582 400.3C348.943 404.03 343.357 404.807 340.408 401.854C337.925 399.367 337.925 376.987 340.408 374.5C343.512 371.392 349.875 372.946 352.047 377.298ZM383.239 374.5C385.722 376.987 385.722 399.367 383.239 401.854C380.291 404.807 374.704 404.03 372.066 400.3C370.514 398.124 369.583 393.461 369.583 388.177C369.583 382.893 370.514 378.23 372.066 376.054C374.704 372.324 380.291 371.547 383.239 374.5ZM167.686 395.016C170.79 398.279 171.101 399.989 170.635 412.423L170.169 426.255H160.858H151.547L151.082 411.956C150.771 399.212 151.082 397.191 153.875 394.394C158.065 390.198 163.341 390.508 167.686 395.016ZM197.482 394.239C200.431 396.725 201.207 398.901 201.672 408.226C201.982 414.288 201.827 420.971 201.362 423.147C200.431 426.721 199.655 427.032 191.119 427.032H181.808V411.646C181.808 397.347 182.119 395.948 185.222 393.772C189.878 390.508 193.137 390.664 197.482 394.239ZM228.364 394.394C231.157 397.191 231.468 399.212 231.157 411.956L230.692 426.255H221.381H212.07L211.604 412.267C211.294 399.834 211.604 397.813 214.397 394.705C218.432 390.353 224.329 390.353 228.364 394.394ZM259.401 395.482C262.195 399.057 262.505 401.388 262.194 412.889L261.729 426.255H252.418H243.107L242.641 411.49C242.176 397.969 242.486 396.57 245.59 393.928C250.4 390.042 255.522 390.664 259.401 395.482ZM30.347 408.693C31.8988 410.868 32.8299 415.531 32.8299 420.815C32.8299 430.607 29.7262 436.357 24.4499 436.357C18.708 436.357 17.3113 433.404 17.3113 420.815C17.3113 413.666 18.0873 408.226 19.1736 407.138C22.1221 404.185 27.7088 404.962 30.347 408.693ZM62.0048 407.138C63.0911 408.226 63.8671 413.666 63.8671 420.815C63.8671 433.404 62.4704 436.357 56.7285 436.357C51.4522 436.357 48.3485 430.607 48.3485 420.815C48.3485 415.531 49.2796 410.868 50.8315 408.693C53.4697 404.962 59.0563 404.185 62.0048 407.138ZM94.9042 408.226C95.6802 409.936 96.4561 415.531 96.4561 420.815C96.4561 432.783 94.5939 436.357 88.6968 436.357C82.7998 436.357 80.9375 432.783 80.9375 420.815C80.9375 408.848 82.7998 405.273 88.6968 405.273C91.6454 405.273 93.8179 406.361 94.9042 408.226ZM318.682 421.903C322.562 425.322 322.717 444.905 318.837 449.102C315.734 452.521 312.475 452.676 308.75 449.257C304.871 445.838 304.715 426.255 308.595 422.059C311.699 418.639 314.958 418.484 318.682 421.903ZM351.582 422.68C355.306 428.12 354.996 444.75 350.961 448.791C343.512 456.251 338.546 450.967 338.546 435.58C338.546 427.187 339.167 423.457 341.029 421.748C344.443 418.329 348.788 418.639 351.582 422.68ZM166.91 444.284C170.945 447.392 171.101 448.014 170.635 461.846L170.169 475.989H160.858H151.547L151.082 461.691C150.771 448.946 151.082 446.926 153.875 444.128C157.91 440.087 161.634 440.243 166.91 444.284ZM198.258 444.905C201.827 448.48 202.138 449.723 201.672 462.312L201.207 475.989L191.585 476.456L181.808 476.922V461.38C181.808 447.081 182.119 445.682 185.222 443.507C190.188 440.087 193.758 440.398 198.258 444.905ZM228.364 444.128C231.157 446.926 231.468 448.946 231.157 461.691L230.692 475.989H221.381H212.07L211.604 462.623C211.294 451.122 211.604 448.791 214.397 445.216C218.432 440.243 224.019 439.776 228.364 444.128ZM259.401 445.216C262.195 448.791 262.505 451.122 262.194 462.623L261.729 475.989H252.418H243.107L242.641 461.691C242.331 448.946 242.641 446.926 245.434 444.128C249.78 439.776 255.366 440.243 259.401 445.216ZM30.347 455.318C34.0714 460.758 33.7611 477.388 29.7262 481.429C26.0018 485.159 23.8291 485.314 20.1047 481.895C17.9321 479.875 17.3113 477.077 17.3113 468.685C17.3113 462.779 18.0872 456.562 18.8632 454.852C21.0358 450.811 27.3984 451.122 30.347 455.318ZM60.9185 453.453C63.4015 454.852 63.8671 456.873 63.8671 467.286C63.8671 477.388 63.4015 479.875 60.7634 482.206C58.1252 484.537 57.0389 484.693 53.78 483.294C50.0555 481.584 49.9004 480.807 49.9004 468.529C49.9004 452.676 52.5385 449.102 60.9185 453.453ZM93.9731 454.386C95.8354 456.096 96.4561 459.826 96.4561 468.218C96.4561 478.321 95.9906 480.03 93.042 482.051C88.5416 485.159 87.7657 485.159 84.0412 481.429C79.8512 477.233 79.5409 459.049 83.5757 454.697C86.6794 451.278 90.7142 451.122 93.9731 454.386ZM166.91 494.018C170.945 497.126 171.101 497.748 170.635 511.58L170.169 525.724H160.858H151.547L151.082 512.047C150.616 499.458 150.926 498.214 154.496 494.64C159.306 489.977 161.479 489.822 166.91 494.018ZM198.258 494.64C201.827 498.214 202.138 499.458 201.672 512.047L201.207 525.724L191.585 526.19L181.808 526.656V511.736C181.808 498.991 182.274 496.505 184.912 493.863C189.102 489.666 193.602 489.977 198.258 494.64ZM228.364 493.863C231.002 496.505 231.468 498.991 231.468 511.736V526.656L221.846 526.19L212.07 525.724L211.604 512.047C211.138 499.458 211.449 498.214 215.018 494.64C219.674 489.977 224.174 489.666 228.364 493.863ZM258.78 494.64C262.35 498.214 262.66 499.458 262.194 512.047L261.729 525.724H252.418H243.107L242.641 511.425C242.331 498.681 242.641 496.66 245.434 493.863C249.624 489.666 254.125 489.977 258.78 494.64ZM29.7262 501.633C32.2092 504.12 32.8299 506.762 32.8299 514.533C32.8299 525.724 30.0366 531.163 24.2947 531.163C19.0184 531.163 17.3113 526.967 17.3113 514.223C17.3113 504.742 17.7769 503.032 20.7254 501.012C25.2258 497.903 26.0018 497.903 29.7262 501.633ZM59.8322 500.079C63.7119 501.478 63.8671 502.1 63.8671 514.533C63.8671 528.055 62.6256 531.163 56.8837 531.163C51.1418 531.163 49.9004 528.055 49.9004 514.533C49.9004 503.965 50.3659 501.478 52.6937 500.235C55.9526 498.214 55.1767 498.214 59.8322 500.079ZM93.042 501.012C95.9906 503.032 96.4561 504.742 96.4561 514.844C96.4561 526.967 94.4387 531.163 88.6968 531.163C83.7309 531.163 80.9375 525.102 80.9375 514.533C80.9375 506.762 81.5583 504.12 84.0412 501.633C87.7657 497.903 88.5416 497.903 93.042 501.012ZM63.4015 551.368C65.8845 556.341 65.8845 568.153 63.4015 573.127C61.2289 577.478 55.4871 579.032 52.073 576.235C49.2796 573.748 48.9692 551.368 51.7626 548.57C54.8663 545.462 61.2289 547.016 63.4015 551.368ZM94.5939 548.57C95.6802 549.658 96.4561 555.098 96.4561 562.247C96.4561 575.302 95.0594 577.789 88.3864 577.789C85.1275 577.789 83.5757 576.857 82.4894 573.748C80.472 568.619 80.472 553.544 82.4894 549.658C84.3516 546.239 91.6454 545.617 94.5939 548.57ZM486.438 571.106C487.214 572.505 479.92 669.953 478.989 670.73C478.679 671.041 474.644 667.777 470.143 663.27C460.367 653.789 440.193 639.957 429.33 635.294C425.14 633.429 421.415 631.72 421.105 631.564C420.484 630.787 416.139 582.763 416.139 575.769V570.018H450.9C470.144 570.018 486.128 570.484 486.438 571.106Z" fill="#856B8E"/>
<path d="M586.222 503.498C582.808 508.316 585.601 511.891 597.085 518.419C605.931 523.392 613.224 529.764 617.88 537.069L620.208 540.644L625.174 533.65C628.277 529.298 633.243 524.946 638.209 522.304C653.417 514.067 658.073 508.316 653.262 503.498C650.624 500.856 641.778 501.167 635.416 504.275C632.467 505.674 627.812 509.715 625.329 513.134C622.846 516.709 620.363 519.351 620.052 519.196C619.587 519.04 617.104 516.087 614.621 512.668C606.551 501.322 591.188 496.504 586.222 503.498Z" fill="#856B8E"/>
<path d="M1393 575L1282.5 736V755.5L1456.5 747V452H1435.5L1393 575Z" fill="#856B8E"/>
</svg>
