<svg width="575" height="74" viewBox="19 16 575 74" fill="none" xmlns="http://www.w3.org/2000/svg">
<rect x="19.1381" y="15.687" width="574.454" height="74.6681" fill="#856B8E"/>
<path d="M98.6994 29.752C102.027 29.752 104.971 30.2213 107.531 31.16C110.134 32.056 112.31 33.4213 114.059 35.256C115.851 37.0907 117.217 39.3733 118.155 42.104C119.094 44.792 119.563 47.928 119.563 51.512C119.563 56.632 118.667 60.9413 116.875 64.44C115.083 67.896 112.523 70.52 109.195 72.312C105.867 74.104 101.899 75 97.2914 75H78.0914V69.496L83.8514 67.576L82.3794 69.688V35.32L83.9154 37.56L78.0914 35.576V30.072L93.8354 29.752H98.6994ZM97.8034 67.064C98.9128 67.064 100.043 66.936 101.195 66.68C102.347 66.3813 103.414 65.7627 104.395 64.824C105.377 63.8427 106.166 62.3493 106.763 60.344C107.361 58.3387 107.659 55.608 107.659 52.152C107.659 48.824 107.361 46.1787 106.763 44.216C106.209 42.2533 105.462 40.824 104.523 39.928C103.627 38.9893 102.646 38.392 101.579 38.136C100.513 37.8373 99.4674 37.688 98.4434 37.688H91.8514L93.5154 36.024V68.728L91.8514 67.064H97.8034ZM142.614 65.846H147.352L147.26 75H122.926V71.044L127.02 69.664L126.008 71.182V46.48L126.974 47.998L122.926 46.664V42.708L133.828 42.478H146.8V51.264H142.062L141.096 47.124L142.522 48.182H132.816L134.012 46.986V56.922L132.816 55.726H143.074V61.246H132.816L134.012 59.82V70.492L132.816 69.296H143.074L141.602 70.492L142.614 65.846ZM169.504 64.512H174.196V75H150.598V71.044L154.554 69.71L153.68 71.182V46.48L154.554 47.952L150.598 46.664V42.708L164.996 42.478V46.434L160.902 47.952L161.684 46.48V70.492L160.488 69.296H169.412L168.354 70.538L169.504 64.512ZM190.551 46.434L186.687 47.998L187.469 46.848V70.814L186.687 69.71L190.551 71.044V75H176.383V71.044L180.155 69.756L179.465 70.814V46.848L180.431 48.044L176.383 46.664V42.708L190.551 42.478V46.434ZM203.496 75L193.882 46.664L195.722 48.044L191.674 46.664V42.708L205.98 42.478V46.434L201.794 47.86L202.714 45.928L209.016 68.054H207.912L214.904 46.434L215.548 47.998L211.684 46.664V42.708L224.38 42.478V46.434L220.332 47.814L222.126 46.48L212.006 75H203.496ZM245.081 65.846H249.819L249.727 75H225.393V71.044L229.487 69.664L228.475 71.182V46.48L229.441 47.998L225.393 46.664V42.708L236.295 42.478H249.267V51.264H244.529L243.563 47.124L244.989 48.182H235.283L236.479 46.986V56.922L235.283 55.726H245.541V61.246H235.283L236.479 59.82V70.492L235.283 69.296H245.541L244.069 70.492L245.081 65.846ZM253.065 75V71.044L257.113 69.664L256.147 71.182V46.526L257.527 48.136L253.065 46.664V42.708L264.473 42.478H268.475C272.278 42.478 275.145 43.2753 277.077 44.87C279.009 46.434 279.975 48.688 279.975 51.632C279.975 54.2387 279.178 56.416 277.583 58.164C276.019 59.8813 273.504 60.9547 270.039 61.384L270.085 60.464C271.281 60.464 272.262 60.6173 273.029 60.924C273.826 61.2307 274.47 61.66 274.961 62.212C275.482 62.7333 275.942 63.3773 276.341 64.144L279.883 70.86L277.675 69.434L282.045 71.044V75H273.581L269.441 66.26C268.95 65.1253 268.521 64.2667 268.153 63.684C267.816 63.1013 267.417 62.718 266.957 62.534C266.497 62.35 265.807 62.2733 264.887 62.304L262.863 62.35L264.151 61.246V71.182L263.139 69.664L267.417 71.044V75H253.065ZM264.151 58.808L262.863 56.83H266.359C268.199 56.83 269.564 56.4467 270.453 55.68C271.373 54.8827 271.833 53.7173 271.833 52.184C271.833 50.9267 271.48 49.9453 270.775 49.24C270.07 48.504 268.966 48.136 267.463 48.136H262.863L264.151 46.94V58.808ZM288.115 75V71.044L292.393 69.618L291.335 71.182V62.166L292.025 64.788L282.549 46.756L283.975 47.952L280.617 46.664V42.708L293.911 42.478V46.434L290.231 47.676L290.829 46.342L296.763 59.314H295.291L301.363 46.664L301.915 47.998L298.097 46.664V42.708L310.379 42.478V46.434L306.975 47.676L308.401 46.526L298.787 64.788L299.339 62.166V71.182L298.281 69.618L302.559 71.044V75H288.115ZM430.406 75.598C428.075 75.598 426.312 74.908 425.116 73.528C423.95 72.1173 423.368 70.032 423.368 67.272V54.438L424.334 55.404H420.056V51.31L424.426 49.976L423.368 51.31V44.916L431.188 43.49V51.31L430.406 50.298H437.352L437.214 55.404H430.406L431.188 54.438V66.214C431.188 67.502 431.387 68.4373 431.786 69.02C432.184 69.6027 432.798 69.894 433.626 69.894C434.086 69.894 434.592 69.8327 435.144 69.71C435.726 69.5567 436.37 69.3573 437.076 69.112L438.502 73.298C435.711 74.8313 433.012 75.598 430.406 75.598ZM451.682 49.7C455.485 49.7 458.413 50.7887 460.468 52.966C462.553 55.1127 463.596 58.1947 463.596 62.212C463.596 65.0027 463.075 67.3947 462.032 69.388C461.02 71.3813 459.563 72.9147 457.662 73.988C455.761 75.0613 453.491 75.598 450.854 75.598C447.082 75.598 444.169 74.5247 442.114 72.378C440.09 70.2007 439.078 67.1033 439.078 63.086C439.078 60.2647 439.569 57.8573 440.55 55.864C441.562 53.8707 443.003 52.3527 444.874 51.31C446.775 50.2367 449.045 49.7 451.682 49.7ZM451.36 55.174C449.888 55.174 448.83 55.772 448.186 56.968C447.542 58.1333 447.22 60.05 447.22 62.718C447.22 65.386 447.527 67.2873 448.14 68.422C448.784 69.5567 449.811 70.124 451.222 70.124C452.234 70.124 453.047 69.8633 453.66 69.342C454.273 68.79 454.718 67.962 454.994 66.858C455.301 65.7233 455.454 64.282 455.454 62.534C455.454 59.8967 455.132 58.0107 454.488 56.876C453.844 55.7413 452.801 55.174 451.36 55.174ZM493.195 50.528L503.223 50.068V54.024L500.509 55.036L501.475 54.254L495.909 75.092H487.491L482.983 56.278L484.455 56.324L479.257 75.092H470.839L465.687 54.576L466.469 55.22L463.847 54.438V50.528L475.209 50.068V54.024L472.265 54.99L473.047 54.438L476.313 70.446H475.071L480.177 50.482L488.043 50.068L492.643 70.722H491.493L495.173 54.622L495.817 55.312L493.195 54.438V50.528ZM504.173 75V71.044L507.899 69.802L506.979 70.906V54.438L507.899 55.68L504.173 54.392V50.482L513.051 50.068L514.017 54.392L513.051 54.07C514.523 52.598 516.087 51.5093 517.743 50.804C519.399 50.068 520.978 49.7 522.481 49.7C524.536 49.7 526.268 50.3593 527.679 51.678C529.09 52.9967 529.78 55.0053 529.749 57.704V70.906L529.105 69.848L532.555 71.044V75H521.975V59.314C521.975 58.026 521.699 57.0907 521.147 56.508C520.595 55.8947 519.874 55.588 518.985 55.588C518.28 55.588 517.513 55.772 516.685 56.14C515.888 56.508 515.09 57.0447 514.293 57.75L514.799 56.692V71.044L514.109 69.94L517.191 71.044V75H504.173Z" fill="white"/>
<rect x="67.6339" y="57.5" width="22.8311" height="6.4668" rx="3.2334" fill="white" stroke="#856B8E"/>
<rect x="58.563" y="47.5" width="30.4852" height="6.4627" rx="3.23135" fill="white" stroke="#856B8E"/>
<rect x="65.6182" y="37.5" width="20.3225" height="6.4668" rx="3.2334" fill="white" stroke="#856B8E"/>
<ellipse cx="51.8394" cy="50.825" rx="2.84724" ry="2.825" fill="white"/>
<rect x="23.401" y="21.1649" width="563.42" height="63.7123" stroke="#B396BD" stroke-dasharray="5 5"/>
<g clip-path="url(#clip0)">
<path d="M336.062 54.0264L330.498 55.3903C329.234 55.7002 328.535 56.9363 328.832 58.1281C329.145 59.3827 330.39 60.0756 331.592 59.7811L337.155 58.4173L336.062 54.0264Z" fill="white"/>
<path d="M381.232 20.4572C381.922 22.1516 383.192 25.3676 383.882 27.0619C384.181 27.7209 385.049 27.974 385.603 27.5054C387.217 26.1778 387.871 23.9543 387.04 21.9618C386.208 19.9694 384.174 18.8042 382.12 18.9082C381.394 18.9533 380.918 19.7355 381.232 20.4572Z" fill="white"/>
<path d="M400.551 70.5628C394.441 72.0607 388.264 68.3604 386.754 62.2979C385.244 56.2355 388.974 50.1066 395.084 48.6086C401.194 47.1107 407.371 50.811 408.881 56.8735C410.391 62.936 406.661 69.0649 400.551 70.5628Z" fill="white"/>
<path d="M399.333 65.6702C395.946 66.5004 392.522 64.4494 391.685 61.0891C390.848 57.7287 392.916 54.3315 396.302 53.5013C399.689 52.671 403.113 54.722 403.95 58.0824C404.787 61.4427 402.72 64.8399 399.333 65.6702Z" fill="white"/>
<path d="M351.05 82.698C344.94 84.1959 338.762 80.4956 337.253 74.4331C335.743 68.3707 339.473 62.2417 345.583 60.7438C351.693 59.2459 357.87 62.9462 359.38 69.0087C360.89 75.0712 357.16 81.2001 351.05 82.698Z" fill="white"/>
<path d="M349.831 77.8054C346.445 78.6357 343.021 76.5846 342.184 73.2243C341.347 69.864 343.414 66.4668 346.801 65.6365C350.188 64.8062 353.612 66.8573 354.449 70.2176C355.285 73.578 353.218 76.9751 349.831 77.8054Z" fill="white"/>
<path d="M344.035 49.1432L343.909 49.1742C342.597 49.5624 324.559 55.7815 329.526 75.7284C329.823 76.9202 331.084 77.6759 332.285 77.3814L377.867 66.2071C382.672 65.0292 386.645 61.8588 388.915 57.5085L393.251 49.0581C393.838 47.9157 393.842 46.5837 393.277 45.3912C390.591 39.993 386.782 35.203 382.007 31.382L380.494 30.1555L375.752 31.3179L384.692 48.3609C385.735 53.8955 382.182 59.2923 376.698 60.7034L368.922 62.6097C365.381 63.4776 361.833 61.3524 360.959 57.8397C360.412 55.6443 361.05 53.3581 362.65 51.7013L365.802 48.466C366.436 47.7782 366.723 46.7761 366.504 45.8979L365.957 43.7025L344.02 49.0804L344.035 49.1432Z" fill="white"/>
<path d="M345.887 53.6144C345.95 53.5989 345.95 53.5989 345.887 53.6144C346.393 53.4905 346.881 53.8365 346.991 54.2756C347.115 54.7774 346.83 55.2468 346.324 55.3708C338.548 57.2771 333.836 65.0213 335.757 72.7366C335.882 73.2384 335.596 73.7078 335.091 73.8318C334.585 73.9558 334.112 73.6724 333.987 73.1706C331.831 64.5144 337.162 55.7532 345.887 53.6144Z" fill="white"/>
<path d="M363.279 46.9548L366.192 44.6434C366.635 44.2685 366.826 43.6892 366.701 43.1874C365.967 40.2393 362.955 38.3819 359.921 39.1258L350.754 41.3731C347.656 42.1325 344.448 42.7192 341.241 43.0396C338.144 43.5326 336.209 46.5361 336.959 49.547L337.49 51.6797C337.661 52.3697 338.387 52.8574 339.145 52.6715L358.82 48.7134C360.479 48.6396 361.997 48.0012 363.279 46.9548Z" fill="white"/>
<path d="M330.92 34.1887L331.015 34.2986C332.574 35.7133 333.691 37.5028 334.191 39.51L334.503 40.7646C334.644 41.3291 334.405 41.9866 333.883 42.3143L333.187 42.7512C332.538 43.1098 331.686 42.9194 331.261 42.2915L327.818 36.5465C327.378 35.8558 327.633 34.9946 328.345 34.6204L329.341 34.0433C329.863 33.7157 330.479 33.7644 330.92 34.1887Z" fill="white"/>
<path d="M327.66 36.7185C327.312 36.9369 327.216 37.3598 327.436 37.7051L334.195 49.4924C334.808 50.6067 336.006 51.3779 337.253 51.538L338.99 51.7778L338.599 50.2096L338.189 50.1772C336.815 50.0481 335.617 49.2769 334.909 48.0526L328.654 36.9406C328.45 36.658 328.008 36.5 327.66 36.7185Z" fill="white"/>
<path d="M374.84 30.0774L373.331 27.5189C372.89 26.8282 372.924 25.888 373.432 25.2312L375.525 22.3222C376.381 21.1805 377.568 20.2905 378.927 19.8241L382.958 18.5031C383.275 18.4256 383.559 18.4891 383.748 18.709L384.534 19.714C385.809 21.3316 386.673 23.1831 387.031 25.1587L387.233 26.2405C387.311 26.5541 387.121 26.867 386.82 27.0072L384.196 28.05C382.124 28.8906 381.343 31.4115 382.681 33.28L376.978 33.5465L374.84 30.0774Z" fill="white"/>
<path d="M375.778 22.2602C375.778 22.2602 376.791 21.4794 377.813 22.8926C378.82 24.243 377.836 25.9485 377.836 25.9485L373.485 28.679C372.615 29.2251 371.447 28.8458 371.008 27.8887C370.71 27.2297 370.917 26.4467 371.471 25.9781L375.778 22.2602Z" fill="white"/>
<path d="M407.17 52.9668L404.325 53.6642C397.829 55.3233 392.023 58.9431 387.586 64.024C386.857 64.8682 385.484 64.4727 385.266 63.3281C384.986 61.9327 384.77 59.9889 384.981 57.8739C385.309 53.8004 387.136 49.8249 391.027 47.673C399.111 43.2288 405.163 47.8683 407.793 50.6178C408.485 51.513 408.119 52.7343 407.17 52.9668Z" fill="white"/>
<path d="M398.131 48.993C398.131 48.993 393.205 48.6035 390.177 52.3406C388.117 54.8423 387.967 57.741 387.967 57.741" stroke="white" stroke-width="2.5" stroke-miterlimit="10" stroke-linecap="round"/>
</g>
<defs>
<clipPath id="clip0">
<rect width="83.3178" height="82.7416" fill="white" transform="matrix(-0.971241 0.238099 0.241645 0.970365 395.993 0)"/>
</clipPath>
</defs>
</svg>
