<svg width="657" height="86" viewBox="16 18 657 86" fill="none" xmlns="http://www.w3.org/2000/svg">
<rect x="16.0862" y="18.0777" width="656.828" height="86.0473" fill="#856B8E"/>
<path d="M96.9338 35.096C100.678 35.096 103.99 35.624 106.87 36.68C109.798 37.688 112.246 39.224 114.214 41.288C116.23 43.352 117.766 45.92 118.822 48.992C119.878 52.016 120.406 55.544 120.406 59.576C120.406 65.336 119.398 70.184 117.382 74.12C115.366 78.008 112.486 80.96 108.742 82.976C104.998 84.992 100.534 86 95.3498 86H73.7498V79.808L80.2298 77.648L78.5738 80.024V41.36L80.3018 43.88L73.7498 41.648V35.456L91.4618 35.096H96.9338ZM95.9258 77.072C97.1738 77.072 98.4458 76.928 99.7418 76.64C101.038 76.304 102.238 75.608 103.342 74.552C104.446 73.448 105.334 71.768 106.006 69.512C106.678 67.256 107.014 64.184 107.014 60.296C107.014 56.552 106.678 53.576 106.006 51.368C105.382 49.16 104.542 47.552 103.486 46.544C102.478 45.488 101.374 44.816 100.174 44.528C98.9738 44.192 97.7978 44.024 96.6458 44.024H89.2298L91.1018 42.152V78.944L89.2298 77.072H95.9258ZM148.285 74.856H154.053L153.941 86H124.317V81.184L129.301 79.504L128.069 81.352V51.28L129.245 53.128L124.317 51.504V46.688L137.589 46.408H153.381V57.104H147.613L146.437 52.064L148.173 53.352H136.357L137.813 51.896V63.992L136.357 62.536H148.845V69.256H136.357L137.813 67.52V80.512L136.357 79.056H148.845L147.053 80.512L148.285 74.856ZM181.02 73.232H186.732V86H158.004V81.184L162.82 79.56L161.756 81.352V51.28L162.82 53.072L158.004 51.504V46.688L175.532 46.408V51.224L170.548 53.072L171.5 51.28V80.512L170.044 79.056H180.908L179.62 80.568L181.02 73.232ZM206.643 51.224L201.939 53.128L202.891 51.728V80.904L201.939 79.56L206.643 81.184V86H189.395V81.184L193.987 79.616L193.147 80.904V51.728L194.323 53.184L189.395 51.504V46.688L206.643 46.408V51.224ZM222.401 86L210.697 51.504L212.937 53.184L208.009 51.504V46.688L225.425 46.408V51.224L220.329 52.96L221.449 50.608L229.121 77.544H227.777L236.289 51.224L237.073 53.128L232.369 51.504V46.688L247.825 46.408V51.224L242.897 52.904L245.081 51.28L232.761 86H222.401ZM273.027 74.856H278.795L278.683 86H249.059V81.184L254.043 79.504L252.811 81.352V51.28L253.987 53.128L249.059 51.504V46.688L262.331 46.408H278.123V57.104H272.355L271.179 52.064L272.915 53.352H261.099L262.555 51.896V63.992L261.099 62.536H273.587V69.256H261.099L262.555 67.52V80.512L261.099 79.056H273.587L271.795 80.512L273.027 74.856ZM282.746 86V81.184L287.674 79.504L286.498 81.352V51.336L288.178 53.296L282.746 51.504V46.688L296.634 46.408H301.506C306.136 46.408 309.626 47.3787 311.978 49.32C314.33 51.224 315.506 53.968 315.506 57.552C315.506 60.7253 314.536 63.376 312.594 65.504C310.69 67.5947 307.629 68.9013 303.41 69.424L303.466 68.304C304.922 68.304 306.117 68.4907 307.05 68.864C308.021 69.2373 308.805 69.76 309.402 70.432C310.037 71.0667 310.597 71.8507 311.082 72.784L315.394 80.96L312.706 79.224L318.026 81.184V86H307.722L302.682 75.36C302.085 73.9787 301.562 72.9333 301.114 72.224C300.704 71.5147 300.218 71.048 299.658 70.824C299.098 70.6 298.258 70.5067 297.138 70.544L294.674 70.6L296.242 69.256V81.352L295.01 79.504L300.218 81.184V86H282.746ZM296.242 66.288L294.674 63.88H298.93C301.17 63.88 302.832 63.4133 303.914 62.48C305.034 61.5093 305.594 60.0907 305.594 58.224C305.594 56.6933 305.165 55.4987 304.306 54.64C303.448 53.744 302.104 53.296 300.274 53.296H294.674L296.242 51.84V66.288ZM325.416 86V81.184L330.624 79.448L329.336 81.352V70.376L330.176 73.568L318.64 51.616L320.376 53.072L316.288 51.504V46.688L332.472 46.408V51.224L327.992 52.736L328.72 51.112L335.944 66.904H334.152L341.544 51.504L342.216 53.128L337.568 51.504V46.688L352.52 46.408V51.224L348.376 52.736L350.112 51.336L338.408 73.568L339.08 70.376V81.352L337.792 79.448L343 81.184V86H325.416ZM498.639 86.728C495.802 86.728 493.655 85.888 492.199 84.208C490.78 82.4907 490.071 79.952 490.071 76.592V60.968L491.247 62.144H486.039V57.16L491.359 55.536L490.071 57.16V49.376L499.591 47.64V57.16L498.639 55.928H507.095L506.927 62.144H498.639L499.591 60.968V75.304C499.591 76.872 499.834 78.0107 500.319 78.72C500.804 79.4293 501.551 79.784 502.559 79.784C503.119 79.784 503.735 79.7093 504.407 79.56C505.116 79.3733 505.9 79.1307 506.759 78.832L508.495 83.928C505.098 85.7947 501.812 86.728 498.639 86.728ZM524.541 55.2C529.17 55.2 532.736 56.5253 535.237 59.176C537.776 61.7893 539.045 65.5413 539.045 70.432C539.045 73.8293 538.41 76.7413 537.141 79.168C535.909 81.5947 534.136 83.4613 531.821 84.768C529.506 86.0747 526.744 86.728 523.533 86.728C518.941 86.728 515.394 85.4213 512.893 82.808C510.429 80.1573 509.197 76.3867 509.197 71.496C509.197 68.0613 509.794 65.1307 510.989 62.704C512.221 60.2773 513.976 58.4293 516.253 57.16C518.568 55.8533 521.33 55.2 524.541 55.2ZM524.149 61.864C522.357 61.864 521.069 62.592 520.285 64.048C519.501 65.4667 519.109 67.8 519.109 71.048C519.109 74.296 519.482 76.6107 520.229 77.992C521.013 79.3733 522.264 80.064 523.981 80.064C525.213 80.064 526.202 79.7467 526.949 79.112C527.696 78.44 528.237 77.432 528.573 76.088C528.946 74.7067 529.133 72.952 529.133 70.824C529.133 67.6133 528.741 65.3173 527.957 63.936C527.173 62.5547 525.904 61.864 524.149 61.864ZM575.078 56.208L587.286 55.648V60.464L583.982 61.696L585.158 60.744L578.382 86.112H568.134L562.646 63.208L564.438 63.264L558.11 86.112H547.862L541.59 61.136L542.542 61.92L539.35 60.968V56.208L553.182 55.648V60.464L549.598 61.64L550.55 60.968L554.526 80.456H553.014L559.23 56.152L568.806 55.648L574.406 80.792H573.006L577.486 61.192L578.27 62.032L575.078 60.968V56.208ZM588.443 86V81.184L592.979 79.672L591.859 81.016V60.968L592.979 62.48L588.443 60.912V56.152L599.251 55.648L600.427 60.912L599.251 60.52C601.043 58.728 602.947 57.4027 604.963 56.544C606.979 55.648 608.902 55.2 610.731 55.2C613.232 55.2 615.342 56.0027 617.059 57.608C618.776 59.2133 619.616 61.6587 619.579 64.944V81.016L618.795 79.728L622.995 81.184V86H610.115V66.904C610.115 65.336 609.779 64.1973 609.107 63.488C608.435 62.7413 607.558 62.368 606.475 62.368C605.616 62.368 604.683 62.592 603.675 63.04C602.704 63.488 601.734 64.1413 600.763 65L601.379 63.712V81.184L600.539 79.84L604.291 81.184V86H588.443Z" fill="white"/>
<rect x="62.5777" y="66.446" width="26.2483" height="7.60473" rx="3.80236" fill="white" stroke="#856B8E"/>
<rect x="52.5" y="54.5" width="35" height="7.6" rx="3.8" fill="white" stroke="#856B8E"/>
<rect x="61.5" y="42.5" width="23.3801" height="7.60473" rx="3.80236" fill="white" stroke="#856B8E"/>
<circle cx="45.35" cy="58.35" r="3.35" fill="white"/>
<rect x="20.8885" y="24.3142" width="644.355" height="73.5743" stroke="#B396BD" stroke-dasharray="5 5"/>
<g clip-path="url(#clip0)">
<path d="M387 62.2599L380.639 63.8317C379.194 64.1889 378.395 65.6133 378.734 66.9868C379.092 68.4325 380.516 69.231 381.89 68.8916L388.251 67.3199L387 62.2599Z" fill="white"/>
<path d="M438.648 23.5749C439.437 25.5274 440.889 29.2336 441.679 31.1861C442.02 31.9455 443.012 32.2372 443.646 31.6972C445.492 30.1672 446.239 27.6049 445.289 25.3088C444.338 23.0127 442.012 21.6699 439.664 21.7898C438.833 21.8417 438.289 22.7432 438.648 23.5749Z" fill="white"/>
<path d="M460.738 81.3164C453.751 83.0426 446.688 78.7784 444.962 71.792C443.236 64.8056 447.5 57.7427 454.486 56.0165C461.473 54.2903 468.536 58.5545 470.262 65.5409C471.988 72.5273 467.724 79.5902 460.738 81.3164Z" fill="white"/>
<path d="M459.344 75.6782C455.472 76.635 451.557 74.2714 450.6 70.3989C449.643 66.5264 452.007 62.6116 455.88 61.6548C459.752 60.6979 463.667 63.0615 464.624 66.934C465.58 70.8065 463.217 74.7213 459.344 75.6782Z" fill="white"/>
<path d="M404.138 95.301C397.152 97.0272 390.089 92.763 388.363 85.7766C386.636 78.7902 390.901 71.7273 397.887 70.0011C404.873 68.2749 411.936 72.5391 413.662 79.5255C415.389 86.5119 411.124 93.5748 404.138 95.301Z" fill="white"/>
<path d="M402.745 89.6627C398.872 90.6195 394.958 88.2559 394.001 84.3835C393.044 80.511 395.408 76.5961 399.28 75.6393C403.152 74.6825 407.067 77.0461 408.024 80.9186C408.981 84.791 406.617 88.7059 402.745 89.6627Z" fill="white"/>
<path d="M396.118 56.6325L395.973 56.6682C394.473 57.1156 373.848 64.2825 379.527 87.2693C379.867 88.6427 381.309 89.5135 382.683 89.1742L434.8 76.2969C440.294 74.9395 444.837 71.286 447.433 66.2727L452.39 56.5344C453.062 55.218 453.066 53.683 452.42 52.3087C449.349 46.0879 444.994 40.5679 439.534 36.1645L437.804 34.7512L432.383 36.0907L442.604 55.731C443.797 62.1091 439.734 68.3283 433.463 69.9545L424.572 72.1513C420.524 73.1515 416.468 70.7023 415.468 66.6543C414.843 64.1243 415.572 61.4897 417.401 59.5805L421.005 55.8522C421.73 55.0596 422.058 53.9047 421.808 52.8927L421.183 50.3627L396.1 56.5602L396.118 56.6325Z" fill="white"/>
<path d="M398.235 61.7851C398.307 61.7673 398.307 61.7673 398.235 61.7851C398.813 61.6423 399.372 62.0411 399.497 62.5471C399.64 63.1254 399.313 63.6663 398.735 63.8091C389.844 66.006 384.455 74.9304 386.652 83.8215C386.795 84.3998 386.469 84.9407 385.89 85.0836C385.312 85.2264 384.771 84.8999 384.628 84.3216C382.164 74.3462 388.259 64.2499 398.235 61.7851Z" fill="white"/>
<path d="M418.121 54.1105L421.451 51.447C421.958 51.0149 422.176 50.3473 422.033 49.7691C421.194 46.3716 417.751 44.2312 414.281 45.0885L403.799 47.6782C400.257 48.5534 396.59 49.2296 392.923 49.5987C389.381 50.1669 387.169 53.6281 388.026 57.0978L388.633 59.5555C388.83 60.3507 389.659 60.9128 390.526 60.6985L413.022 56.1372C414.919 56.0521 416.655 55.3165 418.121 54.1105Z" fill="white"/>
<path d="M381.122 39.399L381.23 39.5257C383.013 41.1559 384.29 43.2181 384.861 45.5313L385.219 46.977C385.379 47.6276 385.106 48.3853 384.509 48.7629L383.713 49.2664C382.972 49.6797 381.997 49.4603 381.512 48.7366L377.575 42.1161C377.071 41.3201 377.363 40.3277 378.177 39.8965L379.317 39.2315C379.914 38.8539 380.618 38.91 381.122 39.399Z" fill="white"/>
<path d="M377.394 42.3143C376.996 42.5661 376.886 43.0533 377.138 43.4513L384.866 57.035C385.567 58.3191 386.937 59.2078 388.363 59.3923L390.349 59.6686L389.902 57.8615L389.433 57.8241C387.862 57.6753 386.492 56.7866 385.683 55.3758L378.531 42.5703C378.297 42.2446 377.792 42.0626 377.394 42.3143Z" fill="white"/>
<path d="M431.339 34.6611L429.614 31.7127C429.11 30.9168 429.149 29.8333 429.729 29.0764L432.122 25.724C433.101 24.4084 434.458 23.3828 436.013 22.8453L440.622 21.3229C440.984 21.2336 441.308 21.3067 441.524 21.5602L442.424 22.7184C443.882 24.5825 444.869 26.7162 445.278 28.9928L445.51 30.2395C445.599 30.6009 445.381 30.9615 445.038 31.1231L442.037 32.3248C439.668 33.2935 438.775 36.1985 440.304 38.3518L433.784 38.6589L431.339 34.6611Z" fill="white"/>
<path d="M432.412 25.6526C432.412 25.6526 433.57 24.7528 434.739 26.3813C435.891 27.9376 434.766 29.9029 434.766 29.9029L429.791 33.0496C428.796 33.6789 427.461 33.2418 426.958 32.1389C426.617 31.3794 426.854 30.4771 427.488 29.9371L432.412 25.6526Z" fill="white"/>
<path d="M468.306 61.0388L465.053 61.8425C457.625 63.7544 450.986 67.9259 445.914 73.7811C445.08 74.754 443.51 74.2982 443.261 72.9792C442.941 71.3711 442.694 69.1311 442.935 66.6938C443.309 61.9994 445.399 57.4182 449.848 54.9382C459.09 49.8168 466.01 55.1633 469.018 58.3319C469.809 59.3634 469.39 60.7709 468.306 61.0388Z" fill="white"/>
<path d="M457.971 56.4595C457.971 56.4595 452.337 56.0105 448.876 60.3172C446.521 63.2001 446.349 66.5406 446.349 66.5406" stroke="white" stroke-width="2.5" stroke-miterlimit="10" stroke-linecap="round"/>
</g>
<defs>
<clipPath id="clip0">
<rect width="95.3079" height="95.3079" fill="white" transform="matrix(-0.970806 0.239866 0.239866 0.970806 455.525 0)"/>
</clipPath>
</defs>
</svg>
