<svg width="414" height="707" viewBox="0 0 414 707" fill="none" xmlns="http://www.w3.org/2000/svg">
<path d="M125.634 707L-5.77967 493.077L-49.7567 707H125.634Z" fill="#856B8E"/>
<path d="M-0.891237 77.0227C-9.24136 80.4518 -17.4309 88.0555 -21.1242 95.8084C-24.0147 101.474 -24.1753 109.823 -24.1753 257.276V412.78L-30.5985 418.893C-34.1312 422.322 -40.4672 421.505 -40.4672 421.505L-36.7932 436.337L-34.9562 441.952V447.064L-36.7932 438.545C-37.275 434.817 -38.6302 422.506 -38.6302 416.393L-53.326 388.776L-57 358.212L-45.9781 397.65L-53.326 394.74L-47.8151 406.17L16.9331 562.932L83.4129 660.057L104.654 685.616L124.361 709.476L162.9 708.581V655.504V602.576L167.717 593.63C175.746 579.019 191.964 570.968 210.431 572.608C221.672 573.503 230.503 577.678 238.211 585.579C248.328 596.016 248.328 596.016 249.612 655.206L250.897 709.327H503.488C743.072 709.327 756.24 709.178 756.24 706.643C756.24 702.468 752.065 689.497 749.014 684.13C746.284 679.21 746.284 670.563 747.247 514.164C748.532 337.339 748.532 337.488 756.882 321.237C773.1 289.182 818.063 267.862 852.105 276.062C871.857 280.684 886.309 289.779 895.783 303.644C898.513 307.521 900.761 311.248 900.761 311.695C900.761 312.143 898.352 313.633 895.301 314.975C884.703 319.746 875.068 331.226 875.068 339.576C875.068 342.259 876.031 342.558 884.703 342.558C893.374 342.558 894.498 343.005 895.783 345.838C897.549 350.012 901.885 353.74 906.702 355.081C912.162 356.721 920.833 352.547 923.081 347.179C925.169 342.707 925.49 342.558 935.606 342.558H946.044L944.92 338.383C941.708 326.605 932.877 317.212 921.957 314.23C916.819 312.739 915.213 311.099 910.556 302.899C896.746 278.149 871.375 262.942 840.544 261.004C823.522 259.96 807.464 263.24 789.961 271.142C772.619 279.044 751.904 297.68 743.875 312.739C732.313 334.208 732.956 323.772 733.598 501.044C733.919 588.561 733.598 660.126 732.956 660.126C732.313 660.126 728.138 657.144 723.803 653.417C714.81 645.962 697.307 637.613 684.782 634.78C680.446 633.886 669.687 633.289 661.177 633.438C652.505 633.737 645.119 633.587 644.798 633.14C643.352 631.947 635.645 561.128 636.448 557.848C638.053 551.884 652.827 538.615 663.425 533.397C680.286 525.197 683.979 522.066 683.979 516.102C683.979 511.48 683.337 510.586 678.038 508.647C671.293 505.964 662.461 507.455 652.666 512.673C646.564 516.102 635.805 528.029 635.805 531.31C635.805 535.186 632.915 533.397 628.74 526.837C623.922 519.233 614.93 511.48 607.543 508.647C594.055 503.429 579.602 508.051 582.011 516.698C583.456 522.364 584.741 523.408 597.587 529.669C612.682 536.826 621.995 543.833 626.973 551.735L630.827 558.146L626.331 599.445C623.762 622.107 620.871 641.638 619.908 642.831C618.944 644.024 615.893 645.664 613.485 646.708C609.631 648.199 607.864 647.9 602.565 645.515C584.741 637.017 562.42 634.78 541.063 639.551C537.852 640.148 537.531 636.718 529.823 547.561C526.13 506.56 522.918 469.883 522.276 466.007L521.473 458.999L569.325 458.552C611.397 458.105 617.981 457.807 622.477 455.57C641.104 446.028 641.425 422.471 623.119 412.93L616.696 409.5L620.229 402.493C625.368 392.206 625.207 372.674 619.908 363.431C610.915 347.627 600.799 340.619 583.456 337.637C573.019 335.848 572.537 335.55 570.61 330.183C567.72 322.43 559.851 312.292 552.786 307.073C520.028 283.218 474.102 292.611 455.796 326.903C450.818 336.296 450.818 336.296 442.789 337.339C438.293 337.936 430.906 340.321 426.089 342.558L417.578 346.732L417.096 278C416.615 209.268 416.615 209.119 412.921 202.112C410.834 198.086 406.177 192.57 402.484 189.737C390.922 180.493 385.462 179.748 328.778 180.344C281.728 180.791 278.035 180.941 271.29 183.922C262.298 187.799 254.108 195.254 250.255 203.155C247.525 208.523 247.204 213.741 247.204 251.163V293.208L197.103 293.655C148.929 294.102 146.52 294.251 140.258 297.382C136.725 299.171 131.426 303.048 128.696 305.881C125.966 308.862 123.237 311.248 122.915 311.248C122.434 311.248 122.112 264.284 121.952 206.734C121.952 93.572 122.273 97.7466 113.12 86.7137C111.032 84.03 105.412 80.1536 100.755 78.0663L92.4053 74.1898H49.0489C10.3493 74.1898 4.88961 74.4881 -0.891237 77.0227ZM23.6774 131.591C24.1591 144.115 22.7139 147.246 16.6119 147.246C11.1522 147.246 7.94063 141.878 7.94063 132.783C7.94063 119.365 12.4368 113.998 19.9841 118.172C22.7139 119.663 23.1957 121.9 23.6774 131.591ZM54.5086 118.918C57.0778 121.303 57.7202 123.838 57.7202 131.889C57.7202 145.606 52.0999 151.122 44.5527 144.711C42.3046 142.773 41.6623 140.089 41.6623 131.442C41.6623 121.9 42.144 120.26 45.195 118.321C49.8518 115.34 50.6547 115.34 54.5086 118.918ZM87.4273 118.023C89.6754 119.514 90.6389 122.347 90.9601 129.503C91.6024 140.238 89.1937 146.202 83.8946 146.947C77.7926 147.842 75.3839 143.518 75.3839 131.591C75.3839 121.9 75.8656 120.26 78.9166 118.321C83.2523 115.489 83.5734 115.489 87.4273 118.023ZM22.2322 164.242C23.5168 165.584 23.9986 170.653 23.6774 177.81C23.1957 187.799 22.7139 189.737 19.6629 191.526C16.4513 193.614 15.809 193.464 11.9551 189.886C8.58293 186.755 7.94063 184.817 7.94063 177.511C7.94063 171.995 8.9041 167.522 10.5099 165.435C13.2397 161.708 19.5024 161.111 22.2322 164.242ZM56.1144 164.988C56.9173 166.628 57.7202 172.293 57.7202 177.661C57.7202 185.562 57.0778 188.097 54.5086 190.483C52.7422 192.123 50.6547 193.464 49.6912 193.464C48.8883 193.464 46.6402 192.123 44.8739 190.483C40.6988 186.606 40.2171 168.268 44.2315 164.54C47.6037 161.26 54.0268 161.558 56.1144 164.988ZM88.2302 163.646C89.6754 164.54 90.7995 168.417 91.1207 175.424C91.763 185.115 91.4418 186.159 87.5879 189.737C83.5734 193.464 82.9311 193.614 79.7195 191.526C76.6685 189.737 76.1868 187.799 75.7051 177.81C75.3839 170.653 75.8656 165.584 77.1503 164.242C79.2378 161.857 84.6975 161.558 88.2302 163.646ZM20.9476 208.374C23.5168 209.716 23.9986 211.654 23.9986 221.792C23.9986 233.57 22.0716 238.192 16.9331 238.192C11.4734 238.192 9.70701 234.465 9.22527 222.687C8.90411 212.697 9.38583 210.759 11.9551 208.97C15.6484 206.436 16.7725 206.436 20.9476 208.374ZM55.1509 209.268C58.8442 212.548 58.6836 231.632 54.9903 235.509C51.4576 239.087 47.122 238.938 44.2315 234.912C40.6988 230.141 40.6988 213.294 44.3921 209.566C47.6037 206.286 51.7787 206.137 55.1509 209.268ZM88.8726 210.163C91.763 213.89 92.2447 226.861 89.9966 232.676C87.9091 237.745 82.4494 239.236 78.4349 235.807C74.4204 232.378 73.9387 212.847 77.9532 209.268C81.4859 205.988 85.9821 206.286 88.8726 210.163ZM288.954 224.625C291.202 228.65 291.042 247.585 288.633 249.822C285.582 252.654 278.035 252.058 276.108 248.778C273.539 244.007 274.02 226.861 277.071 224.178C280.443 220.898 286.867 221.196 288.954 224.625ZM321.07 223.283C322.836 224.327 323.479 227.607 323.479 236.701C323.479 245.796 322.836 249.076 321.07 250.12C317.698 252.058 312.399 251.909 310.151 249.822C307.581 247.436 307.581 225.967 310.151 223.581C312.399 221.494 317.698 221.345 321.07 223.283ZM354.47 223.581C357.04 225.967 357.04 247.436 354.47 249.822C353.346 250.865 351.098 251.611 349.171 251.611C343.39 251.611 341.945 248.629 341.945 236.701C341.945 224.774 343.39 221.792 349.171 221.792C351.098 221.792 353.346 222.538 354.47 223.581ZM388.192 223.581C390.761 225.967 390.761 247.436 388.192 249.822C385.462 252.356 379.521 252.058 376.63 249.225C373.579 246.542 373.098 229.396 375.667 224.625C377.594 221.345 385.141 220.748 388.192 223.581ZM23.6774 267.266C24.1591 279.64 22.7139 282.92 16.7725 282.92C10.9916 282.92 9.22527 279.491 9.22527 267.713C9.22527 258.32 9.70699 256.531 12.9186 254.294C15.9696 251.909 16.7725 251.76 19.8235 253.549C22.7139 255.338 23.1957 257.425 23.6774 267.266ZM57.399 266.371C57.8808 278.149 56.1144 282.92 50.9758 282.92C44.2315 282.92 41.6623 278.895 41.6623 268.011C41.6623 255.04 46.319 249.523 53.7057 253.847C56.275 255.338 57.0779 257.574 57.399 266.371ZM89.9966 257.127C92.2447 262.942 91.763 275.913 88.8726 279.64C85.8215 283.666 79.2378 283.964 76.9897 280.087C76.1868 278.447 75.3839 272.484 75.3839 266.669C75.3839 257.873 75.8656 255.934 78.756 254.145C83.0917 251.313 88.0696 252.654 89.9966 257.127ZM287.991 268.906C291.684 272.186 291.523 291.269 287.83 295.146C284.458 298.575 281.728 298.575 277.714 294.848C273.378 290.822 273.057 273.378 277.232 269.204C280.443 265.924 284.619 265.775 287.991 268.906ZM321.712 269.8C325.566 275.018 325.245 290.971 321.07 294.848C317.216 298.426 314.968 298.575 311.114 295.295C307.26 292.015 306.939 272.484 310.793 268.906C314.326 265.626 318.822 265.924 321.712 269.8ZM354.47 268.309C355.594 269.353 356.397 274.869 356.397 282.473C356.397 293.059 355.916 294.997 353.346 296.339C345.157 300.364 341.945 296.19 341.945 281.578C341.945 269.502 343.39 266.52 349.171 266.52C351.098 266.52 353.346 267.266 354.47 268.309ZM387.55 268.906C389.477 270.546 390.119 274.124 390.119 282.175C390.119 291.866 389.637 293.506 386.586 295.444C381.929 298.426 381.127 298.426 377.273 294.848C372.937 290.822 372.616 273.378 376.791 269.204C380.002 265.924 384.178 265.775 387.55 268.906ZM22.0716 299.619C25.1226 302.451 24.6409 323.921 21.4293 326.754C18.2177 329.736 16.1302 329.736 12.4368 326.605C10.1887 324.666 9.54641 321.983 9.54641 312.739C9.54641 300.811 10.9916 297.83 16.7725 297.83C18.6994 297.83 20.9476 298.575 22.0716 299.619ZM56.1144 300.662C56.9173 302.302 57.7202 308.266 57.7202 314.081C57.7202 323.175 57.2384 324.815 54.1874 326.754C49.5306 329.736 48.7278 329.736 44.8739 326.157C40.5382 322.132 40.217 304.688 44.3921 300.513C47.7643 296.935 54.0268 297.084 56.1144 300.662ZM88.8726 300.215C92.0841 303.048 92.4053 321.386 89.5149 324.965C86.3033 328.543 82.4494 329.139 78.756 326.754C75.8656 324.815 75.3839 323.026 75.3839 312.888C75.3839 306.03 76.1868 300.662 77.3108 299.619C80.0407 297.084 85.9821 297.382 88.8726 300.215ZM321.07 314.23C323.639 316.615 324.282 319.15 324.282 327.201C324.282 337.787 321.712 342.558 316.092 342.558C310.311 342.558 308.224 338.383 308.224 326.903C308.224 317.212 308.705 315.572 311.756 313.633C316.413 310.652 317.216 310.652 321.07 314.23ZM353.828 313.186C356.237 314.826 356.879 317.361 356.879 326.605C356.879 338.979 355.113 342.558 349.332 342.558C343.39 342.558 341.945 339.725 341.945 327.797C341.945 313.335 346.281 307.968 353.828 313.186ZM387.55 314.081C389.637 316.317 390.119 319.15 389.798 328.543C389.316 339.874 389.155 340.321 384.659 341.812C380.805 343.005 379.681 342.707 377.112 339.725C372.616 334.656 372.776 318.404 377.273 314.23C381.287 310.502 384.017 310.502 387.55 314.081ZM165.308 331.674C168.199 335.103 168.52 337.339 168.199 348.372L167.717 361.194H158.082H148.447L147.966 347.478C147.645 335.252 147.966 333.314 150.856 330.63C155.352 326.455 161.133 326.903 165.308 331.674ZM196.139 330.183C198.548 332.121 199.03 334.954 199.03 347.329V361.94H189.395C180.563 361.94 179.76 361.641 178.797 358.212C176.87 350.907 178.797 334.059 182.008 330.779C185.702 327.052 192.125 326.754 196.139 330.183ZM227.934 330.63C230.824 333.314 231.146 335.252 230.824 347.478L230.343 361.194H220.708H211.073L210.592 347.478C210.27 335.252 210.592 333.314 213.482 330.63C215.248 328.99 218.46 327.648 220.708 327.648C222.956 327.648 226.168 328.99 227.934 330.63ZM259.408 330.779C261.816 333.165 262.619 336.743 262.94 346.136C263.743 360.747 262.459 362.387 250.897 361.641L243.189 361.194L242.707 347.179C242.386 335.699 242.707 332.717 244.955 330.481C248.649 326.754 255.554 326.903 259.408 330.779ZM20.9476 344.048C23.5168 345.39 23.9986 347.329 23.9986 358.063C23.9986 372.376 22.0716 375.358 14.6849 372.973C10.5099 371.631 10.3493 371.034 9.86758 359.405C9.54642 349.863 10.0281 346.881 11.9551 344.943C15.0061 342.11 16.6119 341.961 20.9476 344.048ZM55.1509 344.943C57.0778 346.583 57.7202 350.161 57.7202 358.212C57.7202 369.842 55.6326 373.867 49.6912 373.867C44.5527 373.867 41.6623 368.052 41.6623 357.914C41.6623 350.459 42.3046 347.925 44.8739 345.539C48.7278 341.961 51.7787 341.812 55.1509 344.943ZM88.8726 345.838C92.4053 350.609 92.4053 367.456 88.712 371.183C85.5004 374.463 82.1282 374.613 78.2743 371.333C74.2598 368.052 74.0993 349.267 78.1137 345.241C81.6465 341.663 85.9821 341.812 88.8726 345.838ZM321.712 359.852C324.763 362.536 325.245 379.682 322.676 384.453C320.749 387.733 313.202 388.329 310.151 385.496C307.742 383.26 307.581 364.325 309.829 360.3C311.917 356.87 318.34 356.572 321.712 359.852ZM355.916 361.94C358.806 367.158 358.485 379.98 355.434 384.005C352.704 387.584 346.923 388.329 343.872 385.496C341.303 383.111 341.303 361.641 343.872 359.256C347.084 356.274 353.668 357.765 355.916 361.94ZM388.192 359.256C390.761 361.641 390.761 383.111 388.192 385.496C385.141 388.329 379.36 387.584 376.63 384.005C375.024 381.918 374.061 377.445 374.061 372.376C374.061 367.307 375.024 362.834 376.63 360.747C379.36 357.169 385.141 356.423 388.192 359.256ZM165.148 378.936C168.359 382.067 168.68 383.707 168.199 395.635L167.717 408.904H158.082H148.447L147.966 395.187C147.645 382.962 147.966 381.024 150.856 378.34C155.192 374.314 160.651 374.613 165.148 378.936ZM195.979 378.191C199.03 380.576 199.833 382.664 200.314 391.609C200.636 397.424 200.475 403.835 199.993 405.922C199.03 409.351 198.227 409.649 189.395 409.649H179.76V394.889C179.76 381.173 180.082 379.831 183.293 377.744C188.11 374.613 191.483 374.762 195.979 378.191ZM227.934 378.34C230.824 381.024 231.146 382.962 230.824 395.187L230.343 408.904H220.708H211.073L210.592 395.486C210.27 383.558 210.592 381.62 213.482 378.638C217.657 374.463 223.759 374.463 227.934 378.34ZM260.05 379.384C262.94 382.813 263.261 385.049 262.94 396.082L262.459 408.904H252.824H243.189L242.707 394.74C242.226 381.769 242.547 380.427 245.758 377.893C250.736 374.165 256.035 374.762 260.05 379.384ZM23.0351 392.056C24.6409 394.144 25.6044 398.617 25.6044 403.686C25.6044 413.079 22.3928 418.595 16.9331 418.595C10.9916 418.595 9.54641 415.762 9.54641 403.686C9.54641 396.827 10.3493 391.609 11.4734 390.566C14.5244 387.733 20.3052 388.478 23.0351 392.056ZM55.7932 390.566C56.9173 391.609 57.7202 396.827 57.7202 403.686C57.7202 415.762 56.275 418.595 50.3335 418.595C44.8738 418.595 41.6623 413.079 41.6623 403.686C41.6623 398.617 42.6258 394.144 44.2315 392.056C46.9614 388.478 52.7422 387.733 55.7932 390.566ZM89.836 391.609C90.6389 393.249 91.4418 398.617 91.4418 403.686C91.4418 415.166 89.5149 418.595 83.4129 418.595C77.3108 418.595 75.3839 415.166 75.3839 403.686C75.3839 392.206 77.3108 388.776 83.4129 388.776C86.4639 388.776 88.712 389.82 89.836 391.609ZM321.391 404.729C325.406 408.009 325.566 426.795 321.552 430.821C318.34 434.101 314.968 434.25 311.114 430.97C307.1 427.69 306.939 408.904 310.953 404.878C314.165 401.598 317.537 401.449 321.391 404.729ZM355.434 405.475C359.288 410.693 358.967 426.646 354.792 430.523C347.084 437.679 341.945 432.61 341.945 417.85C341.945 409.799 342.588 406.22 344.515 404.58C348.047 401.3 352.543 401.598 355.434 405.475ZM164.345 426.199C168.52 429.181 168.68 429.777 168.199 443.046L167.717 456.614H158.082H148.447L147.966 442.897C147.645 430.672 147.966 428.733 150.856 426.05C155.031 422.173 158.885 422.322 164.345 426.199ZM196.782 426.795C200.475 430.224 200.796 431.417 200.314 443.494L199.833 456.614L189.877 457.061L179.76 457.508V442.599C179.76 428.882 180.082 427.541 183.293 425.453C188.432 422.173 192.125 422.471 196.782 426.795ZM227.934 426.05C230.824 428.733 231.146 430.672 230.824 442.897L230.343 456.614H220.708H211.073L210.592 443.792C210.27 432.759 210.592 430.523 213.482 427.093C217.657 422.322 223.438 421.875 227.934 426.05ZM260.05 427.093C262.94 430.523 263.261 432.759 262.94 443.792L262.459 456.614H252.824H243.189L242.707 442.897C242.386 430.672 242.707 428.733 245.598 426.05C250.094 421.875 255.875 422.322 260.05 427.093ZM23.0351 436.784C26.889 442.003 26.5678 457.956 22.3928 461.832C18.5389 465.41 16.2907 465.559 12.4368 462.279C10.1887 460.341 9.54641 457.657 9.54641 449.606C9.54641 443.941 10.3493 437.977 11.1522 436.337C13.4003 432.461 19.9841 432.759 23.0351 436.784ZM54.6692 434.995C57.2384 436.337 57.7202 438.275 57.7202 448.265C57.7202 457.956 57.2384 460.341 54.5086 462.578C51.7787 464.814 50.6547 464.963 47.2825 463.621C43.4286 461.981 43.2681 461.236 43.2681 449.457C43.2681 434.25 45.9979 430.821 54.6692 434.995ZM88.8726 435.89C90.7995 437.53 91.4418 441.108 91.4418 449.159C91.4418 458.85 90.9601 460.49 87.9091 462.428C83.2523 465.41 82.4494 465.41 78.5955 461.832C74.2598 457.807 73.9387 440.363 78.1137 436.188C81.3253 432.908 85.5004 432.759 88.8726 435.89ZM164.345 473.909C168.52 476.891 168.68 477.487 168.199 490.756L167.717 504.324H158.082H148.447L147.966 491.203C147.484 479.127 147.805 477.934 151.498 474.505C156.476 470.032 158.724 469.883 164.345 473.909ZM196.782 474.505C200.475 477.934 200.796 479.127 200.314 491.203L199.833 504.324L189.877 504.771L179.76 505.218V490.905C179.76 478.68 180.242 476.294 182.972 473.76C187.308 469.734 191.964 470.032 196.782 474.505ZM227.934 473.76C230.664 476.294 231.146 478.68 231.146 490.905V505.218L221.19 504.771L211.073 504.324L210.592 491.203C210.11 479.127 210.431 477.934 214.124 474.505C218.942 470.032 223.598 469.734 227.934 473.76ZM259.408 474.505C263.101 477.934 263.422 479.127 262.94 491.203L262.459 504.324H252.824H243.189L242.707 490.607C242.386 478.381 242.707 476.443 245.598 473.76C249.933 469.734 254.59 470.032 259.408 474.505ZM22.3928 481.214C24.9621 483.6 25.6044 486.134 25.6044 493.589C25.6044 504.324 22.7139 509.542 16.7725 509.542C11.3128 509.542 9.54641 505.516 9.54641 493.291C9.54641 484.196 10.0282 482.556 13.0792 480.618C17.736 477.636 18.5389 477.636 22.3928 481.214ZM53.5451 479.723C57.5596 481.065 57.7202 481.661 57.7202 493.589C57.7202 506.56 56.4355 509.542 50.4941 509.542C44.5527 509.542 43.2681 506.56 43.2681 493.589C43.2681 483.451 43.7498 481.065 46.1585 479.872C49.5306 477.934 48.7277 477.934 53.5451 479.723ZM87.9091 480.618C90.9601 482.556 91.4418 484.196 91.4418 493.887C91.4418 505.516 89.3543 509.542 83.4129 509.542C78.2743 509.542 75.3839 503.727 75.3839 493.589C75.3839 486.134 76.0262 483.6 78.5955 481.214C82.4494 477.636 83.2523 477.636 87.9091 480.618ZM57.2384 528.924C59.8077 533.695 59.8077 545.026 57.2384 549.797C54.9903 553.972 49.0489 555.463 45.5162 552.779C42.6257 550.393 42.3046 528.924 45.195 526.24C48.4066 523.258 54.9903 524.749 57.2384 528.924ZM89.5149 526.24C90.6389 527.284 91.4418 532.502 91.4418 539.361C91.4418 551.884 89.9966 554.27 83.0917 554.27C79.7195 554.27 78.1137 553.375 76.9897 550.393C74.9021 545.473 74.9021 531.011 76.9897 527.284C78.9166 524.004 86.4639 523.408 89.5149 526.24ZM494.977 547.859C495.78 549.201 488.233 642.682 487.269 643.428C486.948 643.726 482.773 640.595 478.116 636.271C468 627.176 447.125 613.907 435.884 609.434C431.548 607.645 427.695 606.005 427.373 605.856C426.731 605.111 422.235 559.041 422.235 552.332V546.815H458.205C478.116 546.815 494.656 547.262 494.977 547.859Z" fill="#856B8E"/>
</svg>
