<svg width="339" height="57" viewBox="0 0 339 57" fill="none" xmlns="http://www.w3.org/2000/svg">
<rect x="8.85474" y="8.7464" width="320.291" height="41.6317" fill="#856B8E"/>
<path d="M44.1692 17.548C46.0412 17.548 47.6972 17.812 49.1372 18.34C50.6012 18.844 51.8252 19.612 52.8092 20.644C53.8172 21.676 54.5852 22.96 55.1132 24.496C55.6412 26.008 55.9052 27.772 55.9052 29.788C55.9052 32.668 55.4012 35.092 54.3932 37.06C53.3852 39.004 51.9452 40.48 50.0732 41.488C48.2012 42.496 45.9692 43 43.3772 43H32.5772V39.904L35.8172 38.824L34.9892 40.012V20.68L35.8532 21.94L32.5772 20.824V17.728L41.4332 17.548H44.1692ZM43.6652 38.536C44.2892 38.536 44.9252 38.464 45.5732 38.32C46.2212 38.152 46.8212 37.804 47.3732 37.276C47.9252 36.724 48.3692 35.884 48.7052 34.756C49.0412 33.628 49.2092 32.092 49.2092 30.148C49.2092 28.276 49.0412 26.788 48.7052 25.684C48.3932 24.58 47.9732 23.776 47.4452 23.272C46.9412 22.744 46.3892 22.408 45.7892 22.264C45.1892 22.096 44.6012 22.012 44.0252 22.012H40.3172L41.2532 21.076V39.472L40.3172 38.536H43.6652ZM69.8447 37.428H72.7287L72.6727 43H57.8607V40.592L60.3527 39.752L59.7367 40.676V25.64L60.3247 26.564L57.8607 25.752V23.344L64.4967 23.204H72.3927V28.552H69.5087L68.9207 26.032L69.7887 26.676H63.8807L64.6087 25.948V31.996L63.8807 31.268H70.1247V34.628H63.8807L64.6087 33.76V40.256L63.8807 39.528H70.1247L69.2287 40.256L69.8447 37.428ZM86.2124 36.616H89.0684V43H74.7044V40.592L77.1124 39.78L76.5804 40.676V25.64L77.1124 26.536L74.7044 25.752V23.344L83.4684 23.204V25.612L80.9764 26.536L81.4524 25.64V40.256L80.7244 39.528H86.1564L85.5124 40.284L86.2124 36.616ZM99.0237 25.612L96.6717 26.564L97.1477 25.864V40.452L96.6717 39.78L99.0237 40.592V43H90.3997V40.592L92.6957 39.808L92.2757 40.452V25.864L92.8637 26.592L90.3997 25.752V23.344L99.0237 23.204V25.612ZM106.903 43L101.051 25.752L102.171 26.592L99.7069 25.752V23.344L108.415 23.204V25.612L105.867 26.48L106.427 25.304L110.263 38.772H109.591L113.847 25.612L114.239 26.564L111.887 25.752V23.344L119.615 23.204V25.612L117.151 26.452L118.243 25.64L112.083 43H106.903ZM132.216 37.428H135.1L135.044 43H120.232V40.592L122.724 39.752L122.108 40.676V25.64L122.696 26.564L120.232 25.752V23.344L126.868 23.204H134.764V28.552H131.88L131.292 26.032L132.16 26.676H126.252L126.98 25.948V31.996L126.252 31.268H132.496V34.628H126.252L126.98 33.76V40.256L126.252 39.528H132.496L131.6 40.256L132.216 37.428ZM137.076 43V40.592L139.54 39.752L138.952 40.676V25.668L139.792 26.648L137.076 25.752V23.344L144.02 23.204H146.456C148.77 23.204 150.516 23.6893 151.692 24.66C152.868 25.612 153.456 26.984 153.456 28.776C153.456 30.3627 152.97 31.688 152 32.752C151.048 33.7973 149.517 34.4507 147.408 34.712L147.436 34.152C148.164 34.152 148.761 34.2453 149.228 34.432C149.713 34.6187 150.105 34.88 150.404 35.216C150.721 35.5333 151.001 35.9253 151.244 36.392L153.4 40.48L152.056 39.612L154.716 40.592V43H149.564L147.044 37.68C146.745 36.9893 146.484 36.4667 146.26 36.112C146.054 35.7573 145.812 35.524 145.532 35.412C145.252 35.3 144.832 35.2533 144.272 35.272L143.04 35.3L143.824 34.628V40.676L143.208 39.752L145.812 40.592V43H137.076ZM143.824 33.144L143.04 31.94H145.168C146.288 31.94 147.118 31.7067 147.66 31.24C148.22 30.7547 148.5 30.0453 148.5 29.112C148.5 28.3467 148.285 27.7493 147.856 27.32C147.426 26.872 146.754 26.648 145.84 26.648H143.04L143.824 25.92V33.144ZM158.41 43V40.592L161.014 39.724L160.37 40.676V35.188L160.79 36.784L155.022 25.808L155.89 26.536L153.846 25.752V23.344L161.938 23.204V25.612L159.698 26.368L160.062 25.556L163.674 33.452H162.778L166.474 25.752L166.81 26.564L164.486 25.752V23.344L171.962 23.204V25.612L169.89 26.368L170.758 25.668L164.906 36.784L165.242 35.188V40.676L164.598 39.724L167.202 40.592V43H158.41ZM245.022 43.364C243.603 43.364 242.53 42.944 241.802 42.104C241.093 41.2453 240.738 39.976 240.738 38.296V30.484L241.326 31.072H238.722V28.58L241.382 27.768L240.738 28.58V24.688L245.498 23.82V28.58L245.022 27.964H249.25L249.166 31.072H245.022L245.498 30.484V37.652C245.498 38.436 245.619 39.0053 245.862 39.36C246.105 39.7147 246.478 39.892 246.982 39.892C247.262 39.892 247.57 39.8547 247.906 39.78C248.261 39.6867 248.653 39.5653 249.082 39.416L249.95 41.964C248.251 42.8973 246.609 43.364 245.022 43.364ZM257.973 27.6C260.287 27.6 262.07 28.2627 263.321 29.588C264.59 30.8947 265.225 32.7707 265.225 35.216C265.225 36.9147 264.907 38.3707 264.273 39.584C263.657 40.7973 262.77 41.7307 261.613 42.384C260.455 43.0373 259.074 43.364 257.469 43.364C255.173 43.364 253.399 42.7107 252.149 41.404C250.917 40.0787 250.301 38.1933 250.301 35.748C250.301 34.0307 250.599 32.5653 251.197 31.352C251.813 30.1387 252.69 29.2147 253.829 28.58C254.986 27.9267 256.367 27.6 257.973 27.6ZM257.777 30.932C256.881 30.932 256.237 31.296 255.845 32.024C255.453 32.7333 255.257 33.9 255.257 35.524C255.257 37.148 255.443 38.3053 255.817 38.996C256.209 39.6867 256.834 40.032 257.693 40.032C258.309 40.032 258.803 39.8733 259.177 39.556C259.55 39.22 259.821 38.716 259.989 38.044C260.175 37.3533 260.269 36.476 260.269 35.412C260.269 33.8067 260.073 32.6587 259.681 31.968C259.289 31.2773 258.654 30.932 257.777 30.932ZM283.241 28.104L289.345 27.824V30.232L287.693 30.848L288.281 30.372L284.893 43.056H279.769L277.025 31.604L277.921 31.632L274.757 43.056H269.633L266.497 30.568L266.973 30.96L265.377 30.484V28.104L272.293 27.824V30.232L270.501 30.82L270.977 30.484L272.965 40.228H272.209L275.317 28.076L280.105 27.824L282.905 40.396H282.205L284.445 30.596L284.837 31.016L283.241 30.484V28.104ZM289.924 43V40.592L292.192 39.836L291.632 40.508V30.484L292.192 31.24L289.924 30.456V28.076L295.328 27.824L295.916 30.456L295.328 30.26C296.224 29.364 297.176 28.7013 298.184 28.272C299.192 27.824 300.153 27.6 301.068 27.6C302.318 27.6 303.373 28.0013 304.232 28.804C305.09 29.6067 305.51 30.8293 305.492 32.472V40.508L305.1 39.864L307.2 40.592V43H300.76V33.452C300.76 32.668 300.592 32.0987 300.256 31.744C299.92 31.3707 299.481 31.184 298.94 31.184C298.51 31.184 298.044 31.296 297.54 31.52C297.054 31.744 296.569 32.0707 296.084 32.5L296.392 31.856V40.592L295.972 39.92L297.848 40.592V43H289.924Z" fill="white"/>
<rect x="28.25" y="32.25" width="12.7872" height="3.66316" rx="1.83158" fill="white" stroke="#856B8E" stroke-width="0.5"/>
<rect x="23.25" y="27.25" width="17.0548" height="3.66088" rx="1.83044" fill="white" stroke="#856B8E" stroke-width="0.5"/>
<rect x="27.25" y="22.25" width="11.3885" height="3.66316" rx="1.83158" fill="white" stroke="#856B8E" stroke-width="0.5"/>
<circle cx="19.5" cy="29.5" r="1.5" fill="white"/>
<rect x="11.4526" y="12.0219" width="313.696" height="35.0808" stroke="#B396BD" stroke-dasharray="5 5"/>
<g clip-path="url(#clip0)">
<path d="M189.703 30.1228L186.601 30.8832C185.897 31.0561 185.507 31.7452 185.673 32.4097C185.847 33.1092 186.541 33.4955 187.211 33.3314L190.313 32.5709L189.703 30.1228Z" fill="white"/>
<path d="M214.888 11.4061C215.273 12.3508 215.981 14.1439 216.366 15.0886C216.532 15.456 217.016 15.5971 217.325 15.3358C218.226 14.5956 218.59 13.3559 218.127 12.245C217.663 11.1341 216.529 10.4844 215.384 10.5424C214.979 10.5675 214.713 11.0037 214.888 11.4061Z" fill="white"/>
<path d="M225.66 39.3427C222.253 40.1779 218.809 38.1148 217.967 34.7346C217.126 31.3544 219.205 27.9372 222.612 27.1021C226.019 26.2669 229.463 28.33 230.304 31.7102C231.146 35.0904 229.067 38.5076 225.66 39.3427Z" fill="white"/>
<path d="M224.981 36.6148C223.092 37.0777 221.183 35.9342 220.717 34.0606C220.25 32.187 221.403 30.2929 223.291 29.83C225.179 29.3671 227.088 30.5106 227.555 32.3842C228.022 34.2578 226.869 36.1519 224.981 36.6148Z" fill="white"/>
<path d="M198.06 46.1088C194.653 46.944 191.209 44.8809 190.367 41.5007C189.526 38.1205 191.605 34.7033 195.012 33.8681C198.419 33.033 201.863 35.0961 202.705 38.4763C203.546 41.8564 201.467 45.2736 198.06 46.1088Z" fill="white"/>
<path d="M197.381 43.3809C195.493 43.8438 193.584 42.7002 193.117 40.8266C192.651 38.9531 193.803 37.059 195.691 36.596C197.58 36.1331 199.489 37.2767 199.955 39.1503C200.422 41.0238 199.269 42.9179 197.381 43.3809Z" fill="white"/>
<path d="M194.149 27.4001L194.079 27.4174C193.347 27.6338 183.29 31.1013 186.059 42.2229C186.225 42.8874 186.928 43.3087 187.598 43.1445L213.012 36.9142C215.691 36.2574 217.907 34.4898 219.173 32.0643L221.59 27.3526C221.917 26.7157 221.919 25.973 221.604 25.3081C220.107 22.2984 217.983 19.6277 215.321 17.4972L214.477 16.8134L211.833 17.4615L216.818 26.9639C217.399 30.0498 215.418 33.0588 212.36 33.8456L208.025 34.9084C206.051 35.3923 204.073 34.2074 203.585 32.2489C203.28 31.0248 203.636 29.7501 204.528 28.8264L206.285 27.0226C206.639 26.6391 206.799 26.0803 206.677 25.5907L206.372 24.3666L194.141 27.3651L194.149 27.4001Z" fill="white"/>
<path d="M195.182 29.8931C195.217 29.8844 195.217 29.8844 195.182 29.8931C195.464 29.8239 195.736 30.0169 195.797 30.2617C195.867 30.5415 195.707 30.8032 195.425 30.8723C191.09 31.9352 188.462 36.253 189.534 40.5548C189.603 40.8346 189.444 41.0962 189.162 41.1654C188.88 41.2345 188.616 41.0765 188.547 40.7967C187.345 35.9704 190.317 31.0856 195.182 29.8931Z" fill="white"/>
<path d="M204.879 26.18L206.503 24.8912C206.75 24.6822 206.856 24.3592 206.787 24.0794C206.377 22.4357 204.698 21.4001 203.006 21.8149L197.895 23.0679C196.168 23.4913 194.379 23.8184 192.591 23.997C190.864 24.2719 189.785 25.9465 190.204 27.6253L190.5 28.8144C190.595 29.1991 191 29.471 191.423 29.3673L202.393 27.1605C203.317 27.1193 204.164 26.7634 204.879 26.18Z" fill="white"/>
<path d="M186.837 19.0621L186.89 19.1234C187.759 19.9122 188.382 20.9099 188.66 22.0291L188.835 22.7285C188.913 23.0433 188.78 23.4099 188.489 23.5926L188.101 23.8362C187.739 24.0362 187.264 23.93 187.027 23.5799L185.107 20.3767C184.862 19.9916 185.004 19.5115 185.401 19.3028L185.957 18.9811C186.248 18.7984 186.591 18.8255 186.837 19.0621Z" fill="white"/>
<path d="M185.019 20.4726C184.825 20.5944 184.771 20.8302 184.894 21.0227L188.663 27.5948C189.004 28.2161 189.672 28.6461 190.368 28.7353L191.336 28.869L191.118 27.9947L190.89 27.9766C190.124 27.9046 189.456 27.4747 189.061 26.7921L185.573 20.5965C185.459 20.4389 185.213 20.3508 185.019 20.4726Z" fill="white"/>
<path d="M211.324 16.7699L210.483 15.3434C210.237 14.9583 210.257 14.4341 210.539 14.0679L211.706 12.4459C212.184 11.8094 212.845 11.3131 213.603 11.0531L215.851 10.3165C216.027 10.2733 216.186 10.3087 216.291 10.4313L216.73 10.9917C217.441 11.8936 217.922 12.9259 218.122 14.0274L218.234 14.6306C218.278 14.8055 218.172 14.9799 218.004 15.0581L216.541 15.6395C215.386 16.1082 214.95 17.5137 215.696 18.5555L212.517 18.7041L211.324 16.7699Z" fill="white"/>
<path d="M211.847 12.4113C211.847 12.4113 212.412 11.976 212.982 12.7639C213.544 13.5168 212.995 14.4677 212.995 14.4677L210.569 15.9901C210.084 16.2946 209.433 16.0831 209.188 15.5495C209.022 15.1821 209.137 14.7455 209.446 14.4842L211.847 12.4113Z" fill="white"/>
<path d="M229.35 29.532L227.764 29.9208C224.142 30.8459 220.905 32.8641 218.431 35.697C218.025 36.1677 217.259 35.9472 217.138 35.309C216.982 34.531 216.861 33.4472 216.979 32.268C217.161 29.9968 218.18 27.7802 220.35 26.5804C224.857 24.1025 228.231 26.6893 229.698 28.2223C230.084 28.7214 229.879 29.4024 229.35 29.532Z" fill="white"/>
<path d="M224.311 27.3164C224.311 27.3164 221.564 27.0992 219.876 29.1828C218.727 30.5777 218.644 32.1939 218.644 32.1939" stroke="white" stroke-width="2.5" stroke-miterlimit="10" stroke-linecap="round"/>
</g>
<defs>
<clipPath id="clip0">
<rect width="46.4544" height="46.1331" fill="white" transform="matrix(-0.971241 0.238099 0.241645 0.970365 223.118 0)"/>
</clipPath>
</defs>
</svg>
