<svg width="144" height="174" viewBox="0 0 144 174" fill="none" xmlns="http://www.w3.org/2000/svg">
<g clip-path="url(#clip0)">
<path d="M79.102 40.822C102.103 40.822 120.767 59.4726 120.767 82.4733C120.767 105.487 102.116 124.138 79.102 124.138C56.1014 124.138 37.4371 105.487 37.4371 82.4733C37.4371 59.4726 56.0878 40.822 79.102 40.822Z" fill="#FFB74D"/>
<path d="M88.0604 33.2231H70.1166C69.2874 33.2231 68.5126 32.8153 68.0368 32.1356C67.5746 31.4559 67.4659 30.5995 67.7377 29.8111L76.7096 5.51905C77.0766 4.51311 78.0282 3.84702 79.0885 3.84702C80.1488 3.84702 81.1004 4.51311 81.4538 5.51905L90.4257 29.8247C90.7111 30.5995 90.6024 31.4831 90.1266 32.1492C89.6644 32.8289 88.8896 33.2231 88.0604 33.2231Z" fill="#FFB74D"/>
<path d="M37.9266 53.9944C37.6366 54.2832 37.2816 54.4981 36.8912 54.6211C36.5009 54.7442 36.0868 54.7716 35.6836 54.7013C34.868 54.5517 34.1747 54.0216 33.8349 53.2739L23.0007 29.7431C22.5521 28.778 22.756 27.6497 23.5036 26.902C24.2513 26.1408 25.3932 25.9369 26.3583 26.3855L49.8891 37.2197C50.6367 37.5731 51.1805 38.2528 51.3164 39.0684C51.466 39.8841 51.1941 40.7133 50.6231 41.3114L37.9266 53.9944Z" fill="#FFB74D"/>
<path d="M2.13421 80.0944L26.4534 71.1361C27.2283 70.8506 28.0983 70.9594 28.778 71.4352C29.4577 71.9109 29.8655 72.6722 29.8655 73.515L29.8519 91.4451C29.8519 92.2744 29.4441 93.0492 28.7644 93.525C28.3294 93.8105 27.8264 93.9736 27.3234 93.9736C27.0244 93.9736 26.7253 93.9192 26.4534 93.8105L2.14781 84.8386C1.66182 84.6584 1.24251 84.334 0.946089 83.9088C0.649672 83.4836 0.490313 82.978 0.48937 82.4597C0.475777 81.413 1.14187 80.4614 2.13421 80.0944Z" fill="#FFB74D"/>
<path d="M33.8484 111.686C34.2018 110.939 34.8815 110.395 35.6972 110.245C36.5128 110.109 37.3556 110.368 37.9401 110.952L50.6231 123.635C51.2076 124.22 51.4659 125.049 51.33 125.864C51.194 126.68 50.6503 127.373 49.9026 127.713L26.3719 138.561C26.032 138.724 25.6786 138.792 25.3115 138.792C24.659 138.792 24.0065 138.534 23.5308 138.058C22.7831 137.297 22.5656 136.169 23.0278 135.203L33.8484 111.686Z" fill="#FFB74D"/>
<path d="M70.1303 131.723L88.074 131.737C88.9033 131.737 89.6781 132.145 90.1403 132.824C90.6161 133.504 90.7248 134.374 90.4393 135.135L81.4675 159.441C81.2903 159.928 80.9676 160.348 80.5433 160.646C80.1189 160.943 79.6134 161.102 79.0954 161.102C78.5773 161.102 78.0718 160.943 77.6475 160.646C77.2231 160.348 76.9004 159.928 76.7233 159.441L67.7514 135.122C67.4659 134.347 67.5747 133.477 68.0504 132.811C68.5262 132.118 69.3011 131.723 70.1303 131.723Z" fill="#FFB74D"/>
<path d="M120.264 110.952C120.849 110.368 121.678 110.109 122.493 110.245C123.309 110.395 124.002 110.939 124.342 111.686L135.19 135.217C135.366 135.603 135.442 136.028 135.412 136.451C135.383 136.875 135.247 137.284 135.019 137.642C134.791 138 134.477 138.295 134.105 138.501C133.734 138.706 133.317 138.816 132.893 138.819C132.526 138.819 132.172 138.738 131.832 138.588L108.302 127.74C107.54 127.387 107.01 126.694 106.861 125.878C106.711 125.062 106.983 124.233 107.567 123.649L120.264 110.952Z" fill="#FFB74D"/>
<path d="M130.867 93.9736C130.196 93.9665 129.555 93.6959 129.082 93.2204C128.609 92.7448 128.342 92.1023 128.339 91.4316L128.352 73.5014C128.353 73.0934 128.453 72.6917 128.642 72.3302C128.832 71.9688 129.105 71.6583 129.44 71.4249C129.775 71.1916 130.161 71.0423 130.565 70.9896C130.97 70.937 131.381 70.9825 131.764 71.1225L156.084 80.0944C157.076 80.4614 157.742 81.413 157.742 82.4733C157.742 83.52 157.089 84.4715 156.084 84.8386L131.764 93.7969C131.465 93.9192 131.166 93.9736 130.867 93.9736Z" fill="#FFB74D"/>
<path d="M124.342 53.2603C124.17 53.6302 123.912 53.9533 123.589 54.2023C123.266 54.4513 122.888 54.6189 122.487 54.6909C122.086 54.7629 121.673 54.7372 121.284 54.616C120.894 54.4947 120.54 54.2815 120.25 53.9944L107.567 41.2978C107.281 41.0091 107.069 40.6557 106.948 40.2676C106.828 39.8794 106.802 39.4679 106.874 39.0679C106.946 38.6679 107.114 38.2911 107.362 37.9694C107.61 37.6477 107.933 37.3905 108.301 37.2197L131.846 26.3719C132.811 25.9233 133.939 26.1272 134.687 26.8884C135.435 27.6361 135.638 28.7644 135.19 29.7295L124.342 53.2603Z" fill="#FFB74D"/>
<path d="M52.3359 111.999C52.3495 111.999 52.3495 111.999 52.3359 111.999C52.3495 111.917 52.3359 111.849 52.3359 111.768C52.3359 101.165 60.9272 92.5734 71.5303 92.5734C72.8897 92.5734 74.2218 92.723 75.5133 92.9948C79.3195 83.7375 88.4137 77.2125 99.044 77.2125C107.024 77.2125 114.147 80.8964 118.809 86.6466C121.814 85.1241 125.198 84.2405 128.801 84.2405C140.287 84.2405 149.722 92.9948 150.823 104.196C163.329 104.849 173.361 115.085 173.524 127.781C173.701 141.022 163.098 151.897 149.857 152.06C148.824 152.073 147.818 152.005 146.826 151.883C141.715 162.663 130.731 170.126 117.994 170.126C110.313 170.126 103.272 167.407 97.7662 162.894C93.5522 166.007 88.3729 167.883 82.7315 167.883C71.1633 167.883 61.4301 160.121 58.3987 149.531C56.4956 150.157 54.4565 150.524 52.3359 150.524C41.692 150.524 33.0736 141.905 33.0736 131.261C33.0736 120.617 41.7056 111.999 52.3359 111.999Z" fill="#B396BD"/>
<path d="M41.026 115.669C36.6624 120.074 39.7482 130.187 42.7524 133.477C48.6521 139.948 59.4999 138.439 63.8499 137.501C65.0326 137.242 65.2229 137.338 65.6035 137.569C65.9433 137.773 66.1065 138.112 66.4735 138.901C67.8737 141.919 71.4896 147.778 79.1293 150.129C87.0816 152.59 94.5854 148.852 98.1062 146.609C99.4383 145.766 99.4927 145.739 100.091 145.752C100.703 145.752 101.301 146.201 102.021 146.772C105.188 149.273 112.448 153.677 123.622 153.038C134.578 152.413 140.859 145.657 143.006 142.177C143.414 141.511 143.863 140.954 144.366 140.899C144.95 140.845 145.603 141.443 146.106 141.932C150.768 146.473 165.436 147.832 170.316 140.097C165.368 148.036 157.715 151.965 149.871 152.06C148.838 152.073 147.832 152.005 146.84 151.883C141.729 162.663 130.745 170.126 118.007 170.126C110.327 170.126 103.285 167.407 97.7799 162.894C93.5658 166.007 88.3866 167.883 82.7452 167.883C71.1769 167.883 61.4438 160.121 58.4124 149.531C56.5093 150.157 54.4702 150.524 52.3496 150.524C41.7057 150.524 33.0872 141.905 33.0872 131.261C33.0736 125.593 35.9283 119.204 41.026 115.669Z" fill="#856B8E"/>
</g>
<defs>
<clipPath id="clip0">
<rect width="174" height="174" fill="white" transform="matrix(-1 0 0 1 174 0)"/>
</clipPath>
</defs>
</svg>
