<svg width="105" height="136" viewBox="0 0 105 136" fill="none" xmlns="http://www.w3.org/2000/svg">
<path d="M85.5032 56.8225H85.4925C85.4925 56.7481 85.5032 56.6738 85.5032 56.5994C85.5032 46.4525 77.2794 38.2181 67.1219 38.2181C65.815 38.2181 64.54 38.3562 63.3182 38.6219C59.6738 29.7606 50.9719 23.5131 40.7932 23.5131C33.1538 23.5131 26.3432 27.0406 21.8807 32.5444C18.9181 31.0378 15.6418 30.2515 12.3182 30.2494C1.32128 30.2494 -7.70997 38.6219 -8.76184 49.3425C-20.715 49.98 -30.3093 59.7763 -30.4687 71.9419C-30.6387 84.6069 -20.4918 95.0194 -7.82685 95.1788C-6.83872 95.1894 -5.88247 95.1256 -4.92622 95.0088C-0.0280933 105.336 10.48 112.476 22.6669 112.476C30.0194 112.476 36.7557 109.873 42.0257 105.549C46.0525 108.534 51.025 110.319 56.4225 110.319C67.4938 110.319 76.8119 102.893 79.7125 92.7456C81.54 93.3513 83.4844 93.6913 85.5138 93.6913C95.6925 93.6913 103.948 85.4356 103.948 75.2569C103.938 65.0781 95.6925 56.8225 85.5032 56.8225Z" fill="#B396BD"/>
<path d="M96.3407 60.3394C100.516 64.5575 97.5626 74.2263 94.6938 77.3819C89.0413 83.5763 78.6713 82.1313 74.5063 81.2388C73.3801 80.9944 73.1994 81.0794 72.8276 81.3025C72.4982 81.5044 72.3494 81.8231 71.9882 82.5775C70.6494 85.4675 67.1857 91.0669 59.8757 93.3194C52.2576 95.6675 45.0751 92.0869 41.7176 89.9513C40.4426 89.1438 40.3894 89.1225 39.8157 89.1331C39.2313 89.1438 38.6576 89.5688 37.9669 90.1106C34.9282 92.5013 27.9901 96.7194 17.2907 96.1031C6.8038 95.4975 0.800676 89.0375 -1.26057 85.7119C-1.6537 85.0744 -2.0787 84.5431 -2.56745 84.49C-3.13057 84.4369 -3.75745 85.0106 -4.22495 85.4781C-8.68745 89.8238 -22.7337 91.1306 -27.3875 83.725C-22.6487 91.3219 -15.3281 95.0831 -7.8162 95.1788C-6.82807 95.1894 -5.87182 95.1256 -4.91557 95.0088C-0.0174484 105.336 10.4907 112.476 22.6776 112.476C30.0301 112.476 36.7663 109.873 42.0363 105.549C46.0632 108.534 51.0357 110.319 56.4332 110.319C67.5044 110.319 76.8226 102.893 79.7232 92.7456C81.5507 93.3513 83.4951 93.6913 85.5244 93.6913C95.7032 93.6913 103.959 85.4356 103.959 75.2569C103.938 69.8381 101.218 63.7181 96.3407 60.3394Z" fill="#856B8E"/>
</svg>
