<svg width="234" height="268" viewBox="0 0 234 268" fill="none" xmlns="http://www.w3.org/2000/svg">
<g clip-path="url(#clip0)">
<path d="M121.835 62.8753C157.262 62.8753 186.009 91.6016 186.009 127.028C186.009 162.475 157.283 191.201 121.835 191.201C86.4091 191.201 57.6619 162.475 57.6619 127.028C57.6619 91.6016 86.3882 62.8753 121.835 62.8753Z" fill="#FFB74D"/>
<path d="M135.633 51.1712H107.996C106.718 51.1712 105.525 50.5431 104.792 49.4962C104.08 48.4494 103.913 47.1303 104.332 45.9159L118.15 8.50062C118.716 6.95125 120.181 5.92531 121.814 5.92531C123.448 5.92531 124.913 6.95125 125.458 8.50062L139.276 45.9369C139.716 47.1303 139.548 48.4912 138.816 49.5172C138.104 50.5641 136.91 51.1712 135.633 51.1712Z" fill="#FFB74D"/>
<path d="M58.4156 83.1638C57.969 83.6086 57.4221 83.9396 56.8209 84.1291C56.2198 84.3186 55.5819 84.3609 54.9609 84.2525C53.7047 84.0222 52.6369 83.2056 52.1134 82.0541L35.4262 45.8113C34.7353 44.3247 35.0494 42.5869 36.2009 41.4353C37.3525 40.2628 39.1112 39.9488 40.5978 40.6397L76.8406 57.3269C77.9922 57.8713 78.8297 58.9181 79.0391 60.1744C79.2694 61.4306 78.8506 62.7078 77.9712 63.6291L58.4156 83.1638Z" fill="#FFB74D"/>
<path d="M3.28712 123.364L40.7443 109.566C41.9378 109.126 43.2778 109.294 44.3246 110.027C45.3715 110.759 45.9996 111.932 45.9996 113.23L45.9787 140.847C45.9787 142.124 45.3506 143.317 44.3037 144.05C43.6337 144.49 42.859 144.741 42.0843 144.741C41.6237 144.741 41.1631 144.657 40.7443 144.49L3.30807 130.671C2.55952 130.393 1.91369 129.894 1.45714 129.239C1.00059 128.584 0.755142 127.805 0.753689 127.007C0.732754 125.395 1.75869 123.929 3.28712 123.364Z" fill="#FFB74D"/>
<path d="M52.1343 172.022C52.6787 170.871 53.7256 170.033 54.9818 169.803C56.2381 169.594 57.5362 169.992 58.4365 170.892L77.9712 190.427C78.8715 191.327 79.2693 192.604 79.0599 193.86C78.8506 195.117 78.013 196.184 76.8615 196.708L40.6187 213.416C40.0952 213.667 39.5509 213.772 38.9856 213.772C37.9806 213.772 36.9755 213.374 36.2427 212.641C35.0912 211.469 34.7562 209.731 35.4681 208.244L52.1343 172.022Z" fill="#FFB74D"/>
<path d="M108.017 202.884L135.654 202.905C136.931 202.905 138.125 203.533 138.837 204.58C139.569 205.627 139.737 206.967 139.297 208.14L125.478 245.576C125.205 246.326 124.709 246.973 124.055 247.431C123.401 247.889 122.623 248.134 121.825 248.134C121.027 248.134 120.248 247.889 119.595 247.431C118.941 246.973 118.444 246.326 118.171 245.576L104.352 208.119C103.913 206.925 104.08 205.585 104.813 204.559C105.546 203.492 106.739 202.884 108.017 202.884Z" fill="#FFB74D"/>
<path d="M185.234 170.892C186.134 169.992 187.412 169.594 188.668 169.803C189.924 170.033 190.992 170.871 191.515 172.022L208.223 208.265C208.494 208.86 208.612 209.514 208.566 210.166C208.52 210.818 208.312 211.449 207.96 212C207.609 212.551 207.125 213.006 206.553 213.323C205.981 213.639 205.339 213.808 204.685 213.814C204.12 213.814 203.575 213.688 203.052 213.458L166.809 196.75C165.637 196.205 164.82 195.137 164.59 193.881C164.359 192.625 164.778 191.348 165.678 190.447L185.234 170.892Z" fill="#FFB74D"/>
<path d="M201.565 144.741C200.532 144.73 199.545 144.313 198.816 143.581C198.088 142.848 197.676 141.859 197.671 140.826L197.692 113.209C197.694 112.581 197.847 111.962 198.139 111.405C198.43 110.849 198.851 110.37 199.367 110.011C199.882 109.651 200.477 109.421 201.1 109.34C201.723 109.259 202.357 109.329 202.947 109.545L240.404 123.364C241.933 123.929 242.959 125.395 242.959 127.028C242.959 128.64 241.954 130.106 240.404 130.671L202.947 144.469C202.487 144.657 202.026 144.741 201.565 144.741Z" fill="#FFB74D"/>
<path d="M191.515 82.0331C191.251 82.6028 190.853 83.1005 190.356 83.484C189.859 83.8676 189.276 84.1257 188.658 84.2366C188.04 84.3475 187.404 84.3079 186.804 84.1212C186.205 83.9344 185.659 83.606 185.213 83.1637L165.678 63.6081C165.238 63.1634 164.911 62.6191 164.725 62.0213C164.539 61.4235 164.5 60.7897 164.611 60.1736C164.722 59.5575 164.98 58.9771 165.362 58.4816C165.745 57.9861 166.241 57.59 166.809 57.3269L203.073 40.6187C204.559 39.9278 206.297 40.2419 207.449 41.4144C208.6 42.5659 208.914 44.3037 208.223 45.7903L191.515 82.0331Z" fill="#FFB74D"/>
<path d="M80.6093 172.504C80.6302 172.504 80.6302 172.504 80.6093 172.504C80.6302 172.378 80.6093 172.274 80.6093 172.148C80.6093 155.817 93.8418 142.584 110.173 142.584C112.267 142.584 114.319 142.815 116.308 143.233C122.17 128.975 136.177 118.925 152.551 118.925C164.841 118.925 175.812 124.599 182.994 133.456C187.621 131.111 192.834 129.75 198.383 129.75C216.075 129.75 230.606 143.233 232.302 160.486C251.564 161.491 267.016 177.257 267.267 196.813C267.539 217.206 251.208 233.956 230.815 234.207C229.224 234.228 227.674 234.123 226.146 233.935C218.273 250.538 201.356 262.033 181.737 262.033C169.908 262.033 159.062 257.845 150.582 250.894C144.092 255.689 136.115 258.578 127.426 258.578C109.608 258.578 94.6165 246.623 89.9474 230.313C87.0162 231.276 83.8756 231.841 80.6093 231.841C64.2153 231.841 50.9409 218.567 50.9409 202.173C50.9409 185.778 64.2362 172.504 80.6093 172.504Z" fill="#B396BD"/>
<path d="M63.1893 178.157C56.4684 184.941 61.2212 200.518 65.8484 205.585C74.9353 215.552 91.6434 213.227 98.3434 211.783C100.165 211.385 100.458 211.532 101.044 211.887C101.568 212.202 101.819 212.725 102.384 213.939C104.541 218.587 110.11 227.612 121.877 231.234C134.126 235.023 145.683 229.266 151.106 225.811C153.158 224.513 153.242 224.471 154.163 224.492C155.105 224.492 156.026 225.183 157.136 226.062C162.014 229.915 173.195 236.698 190.406 235.714C207.281 234.751 216.954 224.345 220.262 218.985C220.891 217.959 221.582 217.101 222.356 217.017C223.257 216.933 224.262 217.855 225.036 218.608C232.218 225.602 254.809 227.695 262.326 215.782C254.705 228.009 242.917 234.06 230.836 234.207C229.245 234.228 227.695 234.123 226.167 233.935C218.294 250.538 201.377 262.033 181.758 262.033C169.929 262.033 159.083 257.845 150.603 250.894C144.113 255.689 136.136 258.578 127.447 258.578C109.629 258.578 94.6375 246.623 89.9684 230.312C87.0372 231.276 83.8965 231.841 80.6303 231.841C64.2362 231.841 50.9618 218.567 50.9618 202.172C50.9409 193.442 55.3378 183.601 63.1893 178.157Z" fill="#856B8E"/>
</g>
<defs>
<clipPath id="clip0">
<rect width="268" height="268" fill="white" transform="matrix(-1 0 0 1 268 0)"/>
</clipPath>
</defs>
</svg>
