<svg width="186" height="256" viewBox="0 0 186 256" fill="none" xmlns="http://www.w3.org/2000/svg">
<path d="M149.3 106.96H149.28C149.28 106.82 149.3 106.68 149.3 106.54C149.3 87.44 133.82 71.94 114.7 71.94C112.24 71.94 109.84 72.2 107.54 72.7C100.68 56.02 84.3001 44.26 65.1401 44.26C50.7601 44.26 37.9401 50.9 29.5401 61.26C23.9634 58.424 17.7964 56.9439 11.5401 56.94C-9.15995 56.94 -26.1599 72.7 -28.1399 92.88C-50.6399 94.08 -68.6999 112.52 -68.9999 135.42C-69.3199 159.26 -50.2199 178.86 -26.3799 179.16C-24.5199 179.18 -22.7199 179.06 -20.9199 178.84C-11.6999 198.28 8.08005 211.72 31.0201 211.72C44.86 211.72 57.5401 206.82 67.4601 198.68C75.0401 204.3 84.4001 207.66 94.5601 207.66C115.4 207.66 132.94 193.68 138.4 174.58C141.84 175.72 145.5 176.36 149.32 176.36C168.48 176.36 184.02 160.82 184.02 141.66C184 122.5 168.48 106.96 149.3 106.96Z" fill="#B396BD"/>
<path d="M169.7 113.58C177.56 121.52 172 139.72 166.6 145.66C155.96 157.32 136.44 154.6 128.6 152.92C126.48 152.46 126.14 152.62 125.44 153.04C124.82 153.42 124.54 154.02 123.86 155.44C121.34 160.88 114.82 171.42 101.06 175.66C86.72 180.08 73.2001 173.34 66.8801 169.32C64.48 167.8 64.3801 167.76 63.3 167.78C62.2001 167.8 61.1201 168.6 59.8201 169.62C54.1001 174.12 41.04 182.06 20.9 180.9C1.16005 179.76 -10.1399 167.6 -14.02 161.34C-14.76 160.14 -15.56 159.14 -16.4799 159.04C-17.54 158.94 -18.7199 160.02 -19.5999 160.9C-27.9999 169.08 -54.44 171.54 -63.2 157.6C-54.28 171.9 -40.5 178.98 -26.36 179.16C-24.5 179.18 -22.7 179.06 -20.9 178.84C-11.68 198.28 8.10004 211.72 31.04 211.72C44.8801 211.72 57.56 206.82 67.48 198.68C75.06 204.3 84.42 207.66 94.58 207.66C115.42 207.66 132.96 193.68 138.42 174.58C141.86 175.72 145.52 176.36 149.34 176.36C168.5 176.36 184.04 160.82 184.04 141.66C184 131.46 178.88 119.94 169.7 113.58Z" fill="#856B8E"/>
</svg>
